<svg width="2532" height="888" viewBox="0 0 2532 888" fill="none" xmlns="http://www.w3.org/2000/svg">
<ellipse cx="140.427" cy="747.565" rx="29.7473" ry="26.7937" fill="#D9D9D9"/>
<path d="M419.887 0.0839844H455.02C455.154 0.108923 455.287 0.135332 455.42 0.158799C463.883 1.64646 473.031 1.42557 481.622 2.29486C498.066 4.01495 514.401 6.69998 530.546 10.3367C634.723 33.9736 726.705 96.3174 788.793 185.372C826.811 239.733 852.273 302.266 863.238 368.228C865.212 379.84 866.688 391.536 867.658 403.28C868.198 409.977 867.987 418.492 869.345 424.886V461.848L869.269 462.312C868.063 470.544 868.164 479.105 867.371 487.409C865.735 504.063 863.204 520.612 859.797 536.982C837.719 641.686 779.465 734.652 695.798 798.702C642.316 839.769 580.246 867.481 514.512 879.645C503.075 881.74 491.563 883.402 480.003 884.606C474.212 885.151 461.406 885.212 456.689 886.597H418.983C413.1 885.194 404.364 885.419 398.14 884.883C386.773 883.783 375.449 882.259 364.192 880.294C299.995 869.014 239.134 842.899 186.207 803.936C98.958 739.904 38.027 644.857 15.2612 537.277C11.769 520.524 9.18491 503.585 7.52083 486.539C6.74115 478.407 7.04782 469.82 5.68966 461.807C5.66696 461.672 5.64135 461.539 5.61719 461.406V425.325C6.94413 419.72 6.76813 409.571 7.27373 403.292C8.31779 391.63 9.78734 380.011 11.6793 368.461C22.5806 302.805 47.8202 240.532 85.5064 186.312C147.608 96.6689 239.965 33.9276 344.627 10.2836C361.228 6.5704 378.024 3.84079 394.931 2.10834C402.996 1.28969 411.562 1.59571 419.495 0.159664C419.626 0.135991 419.756 0.109211 419.887 0.0839844Z" fill="#D9D9D9"/>
<path d="M287.971 57.6415C296.67 54.9248 305.201 51.6957 313.889 48.9419C329.902 43.8571 346.185 39.6644 362.664 36.3849C451.792 19.7201 543.932 33.1568 624.589 74.5819C657.408 91.6356 687.765 113.058 714.832 138.262C711.526 148.75 711.272 160.252 707.39 170.409C704.062 179.116 697.73 186.132 694.418 195.011C696.515 192.552 698.001 189.606 699.825 186.94C702.156 183.533 704.732 180.148 706.616 176.47C712.277 165.418 713.968 152.401 717.196 140.476C727.839 150.594 737.977 161.231 747.569 172.349C751.647 177.009 756.465 182.044 759.5 187.446C756.861 195.962 752.665 203.904 748.735 211.877C740.234 229.27 730.792 246.186 720.448 262.549C715.724 269.935 710.552 277.075 705.636 284.337C701.963 289.76 698.259 297.048 693.337 301.319C685.353 308.246 670.914 312.749 661.62 320.019C668.103 317.89 674.169 314.841 680.472 312.261C685.379 310.252 691.513 309.073 695.769 305.877C700.907 302.019 704.793 296.217 708.659 291.163C726.71 267.572 738.023 247.512 752 221.599C756.277 213.67 760.978 205.829 764.974 197.769C765.364 196.983 765.712 196.173 766.053 195.365C781.94 216.502 803.088 251.063 812.078 275.776C807.807 282.776 800.453 289.088 794.888 295.166C772.271 319.872 767.718 328.813 734.094 336.965C720.128 340.257 706.009 342.862 691.788 344.768C671.977 347.288 648.68 344.322 631.198 355.4C620.323 362.292 615.67 374.497 605.932 382.683C596.638 390.496 583.285 395.145 572.789 402.507C542.64 393.778 515.096 378.793 492.544 356.864C466.9 331.929 461.016 303.492 420.591 297.186C401.178 294.158 381.08 295.881 361.707 298.355C352.655 299.51 343.22 301.278 334.089 301.212C367.345 289.116 386.081 287.323 421.712 289.195C419.761 273.362 423.039 252.59 433.302 239.839C435.997 236.491 439.029 234.889 443.29 234.459C447.99 233.985 452.846 234.907 457.564 234.964C472.309 235.145 485.861 229.227 497.073 220.003C498.981 226.696 502.028 232.374 508.414 235.79C514.247 238.91 521.541 238.975 527.742 236.961C537.463 233.805 545.869 225.75 550.337 216.669C554.232 208.754 556.024 198.524 553.104 190.015C550.948 183.732 546.326 178.164 540.233 175.353C535.935 173.37 530.679 172.892 526.172 174.476C524.498 175.065 522.941 176.017 521.446 176.959C524.363 158.605 519.918 141.48 509.039 126.395C497.966 111.039 480.829 99.848 462.045 96.8317C443.558 93.8632 425.608 99.1842 410.632 110.103C393.699 122.446 394.719 125.572 372.398 124.868C370.218 124.799 368.545 124.814 367.225 126.78C366.513 127.842 366.111 129.016 365.951 130.279C365.312 135.292 369.911 143.502 365.641 147.252C363.424 149.198 359.633 149.804 357.029 151.33L358.265 157.641C356.607 160.066 354.786 162.276 352.892 164.516C352.647 166.758 352.577 169.532 351.582 171.572C348.636 177.607 337.607 184.269 343.087 191.251C351.187 201.57 370.689 206.763 376.799 220.916C374.361 244.253 357.279 266.704 339.679 281.054C309.623 305.56 267.125 315.661 246.109 350.364C241.469 358.026 238.221 366.46 237.316 375.404C236.089 387.522 240.255 398.802 239.819 410.716C239.533 418.515 237.693 426.381 236.528 434.1C234.937 444.627 234.374 455.085 234.586 465.732C225.158 472.916 215.72 484.805 206.07 490.299C196.403 495.803 183.907 498.887 173.285 502.347C166.971 504.403 160.68 506.462 154.465 508.805C148.822 510.933 143.171 513.411 137.371 515.063C104.845 524.329 70.1243 527.937 41.5353 547.555C29.4843 500.922 26.4741 453.813 30.0238 405.884C37.6359 411.271 45.2262 416.7 52.9087 421.985C58.6749 425.951 65.5119 429.403 70.2649 434.599C75.954 440.819 77.6057 449.9 81.7368 457.083C89.3851 470.384 104.313 474.782 117.089 481.494C123.557 484.891 129.875 488.867 136.526 491.875L135.96 491.393C128.387 485.028 118.687 479.441 110.041 474.601C104.052 471.249 97.4941 468.215 92.3721 463.588C83.8278 455.871 81.8256 443.09 75.5567 433.821C74.1032 431.672 71.8121 429.826 69.7641 428.241C65.2064 424.715 60.0903 421.921 55.3959 418.574C47.283 412.792 39.3878 406.185 30.7142 401.27C37.1052 338.708 56.0431 282.079 87.5499 227.672C96.9621 211.417 107.779 194.324 120.138 180.154C124.22 188.466 128.888 196.61 133.821 204.445C136.512 208.721 139.871 212.92 142.029 217.482C146.682 227.321 146.337 238.631 150.147 248.776C153.268 257.087 158.002 265.168 162.616 272.744C164.922 276.53 167.547 280.294 169.378 284.337C173.387 293.185 175.26 303.631 177.776 313.027C180.504 323.217 183.61 333.301 186.357 343.483C187.338 347.111 190.176 350.651 192.624 353.45C196.135 357.465 221.875 381.133 225.997 383.394C226.18 383.495 226.367 383.589 226.552 383.686C227.655 382.945 227.864 382.006 228.278 380.814C227.699 375.604 199.475 350.934 194.692 340.86C187.472 325.655 185.077 302.78 179.128 286.325C174.652 273.945 165.873 262.715 160.541 250.359C156.258 240.439 156.705 229.296 152.907 219.206C148.988 208.798 141.164 200.591 136.233 190.773C132.828 183.993 131.646 176.395 128.518 169.5C172.606 120.928 224.08 82.4381 285.617 58.7192C285.703 61.1372 285.625 63.6967 286.063 66.0766C286.306 64.2531 286.06 62.4677 286.18 60.6471C286.291 58.9828 286.705 58.6558 287.971 57.6415Z" fill="#A3A3A3"/>
<path d="M287.97 57.6426C288.522 61.3823 288.445 65.3348 289.296 68.9935C291.245 77.3817 295.807 83.1322 293.501 92.3883C293.455 93.749 292.98 95.0815 292.637 96.3925C291.718 99.9047 290.787 103.45 290.302 107.053C289.649 111.909 289.655 117.015 288.045 121.674C288.23 115.602 287.374 108.996 288.24 103.048C288.953 98.1584 290.827 93.7178 291.106 88.7159C290.538 80.7924 286.224 74.0383 286.062 66.0776C286.306 64.2542 286.06 62.4687 286.18 60.6482C286.29 58.9838 286.705 58.6568 287.97 57.6426Z" fill="#D9D9D9"/>
<path d="M377.506 353.917C387.124 353.18 396.211 354.866 405.236 358.208C432.321 368.239 463.956 395.641 488.164 412.268C501.279 421.276 515.045 428.422 528.854 436.224C515.072 449.078 507.631 466.803 491.446 477.452C474.288 488.741 459.006 489.373 440.554 495.307C431.415 498.246 386.636 520.061 380.143 526.47C392.238 522.465 403.865 517.503 415.432 512.188C423.535 508.466 431.622 504.355 439.997 501.283C450.226 497.533 461.256 496.891 471.733 494.049C501.671 485.925 517.668 462.455 535.518 439.298C544.738 442.612 553.678 446.315 563.182 448.814C587.393 455.182 610.966 455.379 635.816 454.944C647.442 454.839 659.066 454.535 670.682 454.033C682.457 453.482 699.23 450.454 710.352 452.823C707.039 457.016 703.239 460.709 700.628 465.43C692.005 481.027 701.949 486.789 699.898 498.986C699.235 502.928 697.342 506.157 695.486 509.639C688.895 521.747 680.78 532.95 672.582 544.006C664.908 554.357 657.176 564.665 649.386 574.928C642.448 583.886 635.247 592.594 628.76 601.898C612.204 625.644 600.226 652.964 596.937 681.841C587.262 677.649 578.113 672.317 568.846 667.312C557.817 661.403 546.72 655.62 535.559 649.965C515.397 639.752 495.078 629.623 474.609 620.045C463.864 615.017 452.902 610.453 442.204 605.329C422.929 534.849 361.967 546.935 341.194 502.92C334.216 488.137 334.511 471.348 339.958 456.144C350.699 426.162 386.917 382.798 415.637 369.075C410.278 365.908 404.136 363.742 398.184 361.997C393.471 360.614 375.652 357.496 372.971 355.267C374.056 354.304 376.088 354.182 377.506 353.917Z" fill="#A3A3A3"/>
<path d="M575.59 490.577C581.057 489.974 586.079 492.213 591.148 493.968C605.987 499.105 610.587 501.271 619.932 514.172C622.737 518.043 625.422 521.889 628.95 525.153C638.291 533.791 649.348 540.637 660.22 547.12L657.488 551.292C657.035 551.986 656.733 552.618 655.968 553.012C654.613 553.711 651.007 550.46 649.734 549.648C639.587 543.177 627.959 534.859 620.677 525.132C615.911 518.765 612.413 510.853 606.214 505.698C598.851 499.576 584.671 493.953 575.59 490.577Z" fill="#D9D9D9"/>
<path d="M427.587 0.152873C444.216 -0.294016 460.857 0.239069 477.422 1.74959C593.693 12.6356 700.805 69.4862 774.982 159.681C849.485 250.08 885.158 366.305 874.196 482.935C863.282 601.507 805.5 710.821 713.672 786.624C623.377 861.276 512.871 897.219 395.957 885.976C324.324 879.088 256.199 853.658 195.555 815.325C186.035 809.217 176.771 802.719 167.785 795.849C163.187 792.389 158.612 788.239 153.715 785.243C149.919 782.923 145.423 782.663 141.142 781.765C129.451 779.313 117.868 773.189 110.266 763.831C100.996 752.421 99.8811 739.504 101.328 725.387C46.9201 659.931 12.7481 580.051 2.98461 495.497C-10.9688 372.67 24.3753 254.881 101.207 158.393C106.575 159.955 109.892 163.603 113.585 167.551C103.717 181.322 93.6209 194.879 84.5826 209.222C48.6753 265.34 26.1655 328.971 18.7979 395.186C6.18936 507.717 38.5482 620.672 108.829 709.456L115.388 698.557C81.4959 653.068 56.8526 605.543 42.2628 550.524C63.473 540.258 87.6751 533.605 110.576 528.312C119.763 526.188 129.061 524.638 138.169 522.168C150.824 518.738 163.231 513.219 175.772 509.174C187.172 505.497 200.675 502.639 210.752 496.177C220.139 490.156 227.469 480.894 235.407 473.148C236.014 516.727 245.77 546.272 267.488 583.449C278.51 601.871 292.062 618.996 308.638 632.727C316.309 639.079 325.095 644.565 332.083 651.683L332.602 652.217C305.226 639.823 281.789 620.133 264.859 595.305C234.259 616.098 201.123 633.171 171.266 655.107C147.184 672.8 118.205 699.812 113.627 730.562C112.29 739.546 112.454 748.674 118.162 756.253C127.038 768.039 144.385 772.03 158.257 773.261C177.417 774.961 195.6 771.453 214.502 769.236C228.622 767.579 242.906 766.638 257.07 765.364C296.295 761.778 335.76 761.68 375.002 765.072C385.985 766.105 396.994 767.806 407.922 769.325C413.009 779.52 413.056 791.858 418.784 801.503C426.076 813.781 442.873 819.513 453.537 828.416C464.308 837.407 471.789 848.024 483.71 857.262C411.284 867.835 328.913 851.571 263.36 820.054C241.021 809.313 220.718 796.613 199.925 783.242C193.398 783.266 186.806 784.137 180.265 784.385C256.451 840.757 348.054 873.491 443.271 872.137C554.4 869.848 660.034 823.361 736.79 742.966C816.727 661.502 861.05 551.633 860.017 437.503C858.9 323.1 811.923 213.93 729.617 134.461C649.271 56.3519 540.967 13.7106 428.937 16.0764C343.694 18.3072 261.084 46.0797 191.806 95.7968C165.898 114.609 142.506 136.549 120.39 159.625C115.431 157.592 110.503 155.486 105.604 153.312C108.735 149.725 111.914 146.182 115.141 142.681C182.69 69.0616 273.226 20.5482 371.935 5.07812C390.416 2.20585 408.919 0.927462 427.587 0.152873Z" fill="#A3A3A3"/>
<path d="M699.074 597.535C706.51 603.98 713.638 611.047 722.73 615.115C729.218 618.018 736.211 619.933 742.487 623.293C749.205 626.889 755.018 631.984 762.206 634.749C772.724 638.793 783.911 641.062 794.454 645.156C778.579 676.522 755.97 705.896 731.528 731.076C726.977 726.071 722.405 720.915 716.896 716.939C712.259 713.592 706.894 711.495 702.002 708.583C697.642 705.986 683.898 694.135 680.772 690.316C680.669 690.191 680.581 690.055 680.484 689.925L679.658 690.326L679.303 689.51L679.918 690.47L680.002 690.288L680.143 690.879C685.685 695.836 689.865 702.492 695.344 707.604C700.625 712.532 707.318 715.13 712.926 719.591C718.429 723.969 722.714 730.018 728.084 734.685C713.294 750.807 696.135 765.034 678.646 778.097C621.92 820.464 562.498 845.544 492.477 856.117C486.776 850.951 480.648 846.234 475.056 840.952C468.737 834.982 462.797 828.09 455.82 822.907C445.992 815.606 430.618 810.995 423.405 800.555C419.403 794.765 418.314 787.163 416.195 780.553C414.976 776.751 413.388 773.151 411.695 769.54C418.451 770.865 426.031 770.828 432.91 770.969C449.244 771.304 465.533 770.728 481.856 770.198C490.127 769.93 500.844 770.62 508.691 768.524C511.246 767.841 513.531 766.953 514.901 764.589C514.924 763.298 514.83 762.675 513.99 761.645C512.774 760.157 510.817 759 509.15 758.055C503.111 754.634 496.59 751.978 490.427 748.767C484.683 745.773 479.297 741.607 473.127 739.547C468.206 737.903 462.954 737.692 457.82 737.275C452.028 736.738 445.57 736.631 440.001 734.9C432.964 732.713 428.674 725.918 423.22 721.374C418.806 717.745 414.003 714.617 408.9 712.046C403.701 709.407 390.952 703.319 385.224 705.473C379.803 707.511 380.207 716.837 377.89 721.337C376.74 723.571 375.015 725.161 372.508 725.674C361.085 728.01 318.263 714.71 303.615 711.533C269.771 704.189 240.334 699.974 206.856 712.217C195.935 716.21 185.517 721.725 174.493 725.357L173.699 725.615C181.18 718.866 189.844 713.778 198.857 709.357C210.101 703.705 222.026 699.521 234.337 696.908C257.565 692.038 281.231 691.8 304.056 684.645C320.113 679.613 333.789 671.661 347.398 662.022C367.027 674.268 385.955 686.35 406.945 696.265C460.352 721.49 529.823 742.861 588.838 746.313C598.753 746.893 611.591 747.986 620.943 744.383C655.846 730.932 683.813 632.136 699.074 597.535Z" fill="#A3A3A3"/>
<path d="M815.427 284.355C820.279 290.182 831.962 330.381 834.25 339.208C856.452 424.414 850.894 514.481 818.383 596.31C812.321 611.438 805.699 626.662 797.412 640.718C787.625 635.234 777.025 633.21 766.595 629.43C758.502 626.497 751.845 621.317 744.275 617.441C739.295 614.891 733.573 614.085 728.446 611.903C718.515 607.676 709.469 597.537 701.775 590.184C707.26 576.675 713.422 563.452 719.103 550.026C724.055 538.324 728.5 526.37 733.625 514.748C741.235 497.491 749.184 480.834 755.697 463.069C765.087 436.889 771.543 410.288 772.583 382.469C772.812 376.32 773.214 369.883 771.674 363.861C770.888 360.792 769.695 357.389 766.84 355.729C765.999 355.686 765.517 355.536 764.73 355.92C755.654 360.368 751.351 386.446 747.836 395.587C743.383 407.167 735.25 419.564 723.44 424.664C714.454 428.543 703.592 429.258 693.933 428.887C684.161 428.511 674.408 426.524 664.786 424.884C645.157 421.632 625.691 417.462 606.452 412.389C598.195 410.234 589.639 408.21 581.68 405.103C587.961 400.684 595.322 396.578 602.208 393.147C607.455 390.535 613.561 388.394 618.125 384.695C626.717 377.731 627.816 365.041 638.772 360.195C651.95 354.367 668.641 354.036 682.808 352.755C708.529 350.43 750.45 345.433 770.932 329.604C779.41 323.053 786.529 314.802 793.828 307.006L815.427 284.355Z" fill="#A3A3A3"/>
<path d="M771.083 445.676C782.179 450.378 794.979 456.754 801.628 467.241C806.306 474.617 810.103 481.549 815.934 488.189C820.266 493.12 826.859 495.776 830.889 500.816C822.891 498.3 809.48 487.056 804.328 480.502C800.728 475.922 797.841 470.891 793.584 466.85C787.137 460.729 778.39 456.033 770.773 451.479L771.083 445.676Z" fill="#D9D9D9"/>
<path d="M364.511 378.188L364.887 378.502C362.944 384.003 332.456 405.726 325.57 412.02C320.405 416.741 315.893 421.966 311.795 427.633C291.117 456.231 286.016 488.143 291.569 522.589C293.908 536.7 298.027 550.458 303.828 563.532C327.877 618.807 376.297 649.17 427.756 675.761C445.208 684.78 463.93 691.328 479.975 702.885L471.907 701.363C454.399 696.249 437.898 688.729 421.554 680.686C378.009 659.258 331.852 630.103 307.841 586.427C287.334 549.123 273.576 502.921 286.011 460.846C295.138 429.965 315.961 407.293 342.679 390.4C349.696 385.964 357.219 382.159 364.511 378.188Z" fill="#A3A3A3"/>
<path d="M464.025 177.768C465.196 178.065 466.294 178.284 467.143 179.226C468.28 180.488 468.481 182.12 468.428 183.746C468.261 188.959 464.081 195.095 460.398 198.464C454.226 204.111 447.75 205.319 439.723 204.825C438.871 204.398 437.863 203.919 437.19 203.216C436.298 202.283 435.962 201.472 435.887 200.217C438.83 197.398 445.851 199.53 449.781 198.332C455.076 196.72 460.293 191.191 461.633 185.842C462.201 183.577 462.381 180.417 463.594 178.433C463.732 178.208 463.881 177.989 464.025 177.768Z" fill="#A3A3A3"/>
<path d="M1038 563.117L1038 561.001L1324.64 561.001L1324.64 563.117L1038 563.117Z" fill="white"/>
<path d="M2234.28 563.117L2234.28 561.001L2520.93 561.001L2520.93 563.117L2234.28 563.117Z" fill="white"/>
<path d="M1056.4 399L1055.7 387.744L1076.8 382.468C1076.8 380.827 1076.8 378.482 1076.8 375.434C1077.04 372.151 1077.15 368.399 1077.15 364.178C1077.15 359.723 1077.15 354.798 1077.15 349.405C1077.39 344.012 1077.51 338.384 1077.51 332.521V259.36C1077.51 248.104 1077.39 238.959 1077.15 231.924C1077.15 224.655 1077.04 219.144 1076.8 215.393C1076.8 211.641 1076.68 209.296 1076.45 208.358L1055.35 203.785L1056.05 192.53H1126.05C1145.74 192.53 1161.1 196.868 1172.12 205.544C1183.38 213.986 1189.01 226.179 1189.01 242.125C1189.01 253.615 1185.96 263.932 1179.86 273.078C1173.76 281.988 1165.21 289.023 1154.18 294.182C1143.4 299.106 1130.97 301.568 1116.9 301.568H1093.69V287.851H1116.9C1132.85 287.851 1145.04 284.216 1153.48 276.947C1161.92 269.677 1166.14 259.36 1166.14 245.994C1166.14 232.862 1162.39 222.896 1154.89 216.096C1147.62 209.296 1136.95 205.896 1122.88 205.896H1099.31C1099.08 206.365 1098.84 206.834 1098.61 207.303C1098.61 207.772 1098.61 209.178 1098.61 211.523C1098.61 213.868 1098.61 218.324 1098.61 224.889C1098.61 231.221 1098.61 240.6 1098.61 253.029V332.521C1098.61 344.715 1098.61 354.095 1098.61 360.661C1098.84 366.992 1099.08 371.682 1099.31 374.73C1099.55 377.778 1099.78 380.358 1100.02 382.468L1121.12 387.744L1120.42 399H1056.4ZM1215.03 402.166C1206.12 402.166 1198.15 400.29 1191.12 396.538C1184.32 392.786 1177.28 386.337 1170.01 377.192C1162.98 368.047 1154.54 355.384 1144.69 339.204L1118.66 295.589L1139.06 291.016L1175.29 345.887C1182.56 356.909 1188.89 365.468 1194.28 371.564C1199.91 377.661 1205.3 382.117 1210.46 384.93C1215.62 387.744 1221.25 389.62 1227.35 390.558L1226.99 401.11C1225.35 401.579 1223.36 401.814 1221.01 401.814C1218.9 402.048 1216.91 402.166 1215.03 402.166ZM1391.96 400.759C1384.69 399.821 1379.41 399.234 1376.13 399C1373.08 399 1369.92 399 1366.63 399H1245.99L1245.28 387.744L1266.39 383.172C1266.62 381.999 1266.74 379.537 1266.74 375.785C1266.97 371.799 1267.09 366.288 1267.09 359.254C1267.33 351.984 1267.44 343.074 1267.44 332.521V259.36C1267.44 248.573 1267.33 239.545 1267.09 232.276C1267.09 225.007 1266.97 219.496 1266.74 215.744C1266.74 211.758 1266.62 209.296 1266.39 208.358L1245.28 203.785L1245.99 192.53H1361.36C1363.94 192.53 1366.28 192.53 1368.39 192.53C1370.5 192.53 1372.97 192.412 1375.78 192.178C1378.83 191.943 1382.81 191.592 1387.74 191.123L1393.72 235.09L1380 237.2L1368.74 208.358C1367.57 208.123 1365.81 208.006 1363.47 208.006C1361.36 207.772 1359.01 207.654 1356.43 207.654H1310C1305.55 207.654 1301.8 207.772 1298.75 208.006C1295.7 208.006 1292.53 208.241 1289.25 208.709C1289.25 209.413 1289.13 211.992 1288.9 216.448C1288.9 220.903 1288.78 225.945 1288.55 231.572C1288.55 237.2 1288.55 242.242 1288.55 246.697V351.867C1288.55 355.15 1288.55 359.019 1288.55 363.474C1288.78 367.695 1288.9 371.564 1288.9 375.082C1289.13 378.599 1289.25 380.944 1289.25 382.117C1292.07 382.351 1295 382.586 1298.05 382.82C1301.09 383.055 1304.26 383.172 1307.54 383.172H1349.05C1353.74 383.172 1357.72 383.172 1361.01 383.172C1364.52 382.937 1367.34 382.703 1369.45 382.468C1371.56 382.234 1373.08 381.999 1374.02 381.765L1391.96 349.053L1405.33 351.867L1391.96 400.759ZM1355.73 326.19L1351.16 301.92C1349.99 301.451 1348.11 301.099 1345.53 300.865C1343.18 300.63 1340.25 300.513 1336.74 300.513H1306.14C1303.56 300.513 1300.39 300.63 1296.64 300.865C1293.12 300.865 1289.02 300.982 1284.33 301.217V284.685C1289.02 284.919 1293.12 285.037 1296.64 285.037C1300.39 285.037 1303.56 285.037 1306.14 285.037H1336.74C1340.25 285.037 1343.18 285.037 1345.53 285.037C1348.11 284.802 1349.99 284.451 1351.16 283.982L1355.73 259.008H1368.39V326.19H1355.73ZM1544.97 399L1544.26 387.744L1567.13 384.227C1565.25 381.648 1563.02 378.834 1560.44 375.785C1557.86 372.502 1555.17 369.337 1552.35 366.288L1493.26 300.865H1478.14V289.609L1498.54 283.982L1570.99 208.709L1549.89 203.785L1550.24 192.53H1612.85L1613.2 204.489L1594.56 208.006L1506.27 293.478L1508.03 285.388L1574.86 357.143C1578.15 360.426 1581.19 363.709 1584.01 366.992C1586.82 370.04 1589.4 372.971 1591.75 375.785C1594.33 378.365 1596.67 380.592 1598.78 382.468L1616.02 387.393V399H1544.97ZM1437.69 399L1436.98 387.744L1458.09 383.172C1458.56 381.296 1458.91 376.371 1459.14 368.399C1459.38 360.192 1459.49 348.232 1459.49 332.521V259.36C1459.49 248.339 1459.38 239.311 1459.14 232.276C1459.14 225.007 1459.02 219.496 1458.79 215.744C1458.79 211.758 1458.56 209.296 1458.09 208.358L1436.98 203.785L1437.69 192.53H1503.11L1503.81 203.785L1482.71 208.358C1482.47 209.061 1482.12 211.172 1481.65 214.689C1481.42 217.972 1481.18 223.248 1480.95 230.517C1480.95 237.552 1480.95 247.166 1480.95 259.36V332.521C1480.95 348.232 1481.07 360.192 1481.3 368.399C1481.54 376.371 1481.77 381.296 1482 383.172L1504.87 387.744L1504.16 399H1437.69ZM1634.31 399L1633.6 387.744L1654.71 383.172C1654.94 381.999 1655.06 379.537 1655.06 375.785C1655.29 371.799 1655.41 366.288 1655.41 359.254C1655.65 352.219 1655.76 343.308 1655.76 332.521V259.36C1655.76 248.339 1655.65 239.311 1655.41 232.276C1655.41 225.007 1655.29 219.496 1655.06 215.744C1655.06 211.758 1654.94 209.296 1654.71 208.358L1633.6 203.785L1634.31 192.53H1699.38L1700.08 203.785L1678.98 208.358C1678.74 209.061 1678.39 211.054 1677.92 214.337C1677.69 217.62 1677.45 222.779 1677.22 229.814C1677.22 236.849 1677.22 246.697 1677.22 259.36V332.521C1677.22 344.715 1677.22 354.446 1677.22 361.716C1677.45 368.75 1677.69 373.909 1677.92 377.192C1678.39 380.241 1678.74 382.234 1678.98 383.172L1700.08 387.744L1699.38 399H1634.31ZM1894.24 356.44V264.988C1894.24 249.98 1894.12 238.607 1893.89 230.869C1893.66 222.896 1893.42 217.268 1893.19 213.986C1892.95 210.703 1892.72 208.827 1892.48 208.358L1868.92 203.785L1869.62 192.53H1932.93L1933.64 203.785L1912.53 208.358C1912.53 208.827 1912.3 210.703 1911.83 213.986C1911.59 217.268 1911.36 222.896 1911.13 230.869C1910.89 238.842 1910.77 250.215 1910.77 264.988V356.791C1910.77 362.654 1910.77 369.337 1910.77 376.84C1910.77 384.344 1910.89 392.2 1911.13 400.407H1898.46L1774.3 220.669H1776.76V327.245C1776.76 341.784 1776.88 353.04 1777.11 361.012C1777.58 368.75 1777.93 374.261 1778.17 377.544C1778.64 380.592 1778.87 382.468 1778.87 383.172L1802.44 387.744L1801.73 399H1737.72L1737.01 387.744L1758.12 383.172C1758.35 382.468 1758.59 380.71 1758.82 377.896C1759.06 374.847 1759.29 369.454 1759.53 361.716C1759.76 353.743 1759.88 342.253 1759.88 327.245V260.415C1759.88 247.987 1759.76 238.373 1759.53 231.572C1759.53 224.772 1759.41 219.731 1759.17 216.448C1758.94 212.93 1758.59 210.234 1758.12 208.358L1737.01 203.785L1737.72 192.53H1782.39L1896.7 356.44H1894.24ZM2125.33 191.123L2133.07 245.642L2120.41 247.401L2105.28 208.006C2103.88 207.537 2102 207.303 2099.66 207.303C2097.31 207.068 2095.32 206.951 2093.68 206.951H2080.66C2078.32 206.951 2074.8 206.951 2070.11 206.951C2065.42 206.951 2061.08 207.068 2057.1 207.303C2057.1 209.178 2056.98 213.517 2056.75 220.317C2056.75 227.117 2056.75 234.855 2056.75 243.532C2056.75 252.208 2056.75 260.415 2056.75 268.153V322.673C2056.75 338.384 2056.86 351.75 2057.1 362.771C2057.33 373.792 2057.45 380.592 2057.45 383.172L2086.64 387.041L2085.94 399H2005.74L2005.04 387.041L2034.23 383.172C2034.23 380.592 2034.35 373.792 2034.59 362.771C2034.82 351.75 2034.94 338.384 2034.94 322.673V268.153C2034.94 260.415 2034.94 252.208 2034.94 243.532C2034.94 234.855 2034.94 227.117 2034.94 220.317C2034.94 213.517 2034.82 209.178 2034.59 207.303C2030.83 207.068 2026.61 206.951 2021.92 206.951C2017.23 206.951 2013.6 206.951 2011.02 206.951H1996.95C1995.31 206.951 1993.43 207.068 1991.32 207.303C1989.45 207.303 1987.8 207.537 1986.4 208.006L1970.92 247.752L1958.26 245.642L1966 191.123C1968.81 191.357 1971.27 191.592 1973.38 191.826C1975.73 192.061 1977.84 192.295 1979.71 192.53C1981.82 192.53 1983.82 192.53 1985.69 192.53C1987.8 192.53 1990.15 192.53 1992.73 192.53H2098.6C2101.18 192.53 2103.41 192.53 2105.28 192.53C2107.4 192.53 2109.39 192.53 2111.26 192.53C2113.14 192.295 2115.13 192.061 2117.24 191.826C2119.59 191.592 2122.29 191.357 2125.33 191.123ZM2217.49 402.166C2207.17 402.166 2196.74 400.993 2186.18 398.648C2175.87 396.069 2167.66 393.02 2161.56 389.503L2159.45 347.294L2171.06 345.887L2179.85 374.73C2185.95 378.482 2192.52 381.53 2199.55 383.875C2206.59 385.986 2214.44 387.041 2223.12 387.041C2235.08 387.041 2244.93 383.992 2252.66 377.896C2260.4 371.799 2264.27 363.357 2264.27 352.571C2264.27 344.129 2261.69 337.094 2256.53 331.466C2251.61 325.838 2245.16 320.914 2237.19 316.693C2229.45 312.238 2221.12 308.017 2212.21 304.031C2203.54 299.81 2195.21 295.12 2187.24 289.961C2179.5 284.802 2173.05 278.588 2167.89 271.319C2162.97 264.05 2160.51 255.022 2160.51 244.235C2160.51 233.448 2163.44 223.951 2169.3 215.744C2175.4 207.303 2183.61 200.737 2193.92 196.047C2204.48 191.357 2216.43 189.012 2229.8 189.012C2236.37 189.012 2242.35 189.364 2247.74 190.067C2253.13 190.536 2258.06 191.357 2262.51 192.53C2267.2 193.702 2271.42 195.109 2275.17 196.75L2277.29 236.849L2265.68 238.256L2256.53 211.172C2249.26 206.013 2239.06 203.433 2225.93 203.433C2213.03 203.433 2202.72 206.599 2194.98 212.93C2187.24 219.262 2183.37 227.352 2183.37 237.2C2183.37 245.877 2185.83 253.263 2190.76 259.36C2195.92 265.457 2202.36 270.733 2210.1 275.188C2218.08 279.643 2226.52 283.982 2235.43 288.202C2244.34 292.189 2252.66 296.761 2260.4 301.92C2268.37 306.845 2274.82 312.824 2279.75 319.859C2284.91 326.894 2287.49 335.57 2287.49 345.887C2287.49 356.674 2284.44 366.288 2278.34 374.73C2272.24 383.172 2263.92 389.855 2253.37 394.779C2242.81 399.703 2230.86 402.166 2217.49 402.166ZM2321.6 192.53H2387.03L2387.73 203.785L2366.63 208.709C2366.63 208.944 2366.51 210.351 2366.27 212.93C2366.04 215.275 2365.81 219.965 2365.57 227C2365.57 234.035 2365.57 244.821 2365.57 259.36V321.969C2365.81 337.211 2368.39 349.405 2373.31 358.55C2378.23 367.461 2384.92 373.909 2393.36 377.896C2402.03 381.648 2411.65 383.524 2422.2 383.524C2432.28 383.524 2441.2 381.53 2448.93 377.544C2456.91 373.323 2463.12 366.523 2467.58 357.143C2472.27 347.529 2474.61 334.749 2474.61 318.804V265.691C2474.61 256.077 2474.49 247.401 2474.26 239.662C2474.26 231.924 2474.14 225.358 2473.91 219.965C2473.67 214.572 2473.32 210.82 2472.85 208.709L2448.23 203.785L2448.93 192.53H2512.6L2513.65 203.785L2492.55 208.709C2492.55 209.413 2492.43 211.172 2492.2 213.986C2492.2 216.799 2492.08 222.193 2491.85 230.166C2491.85 237.904 2491.85 249.746 2491.85 265.691V318.452C2491.85 338.618 2488.56 354.915 2482 367.344C2475.67 379.537 2466.99 388.448 2455.97 394.076C2445.18 399.469 2433.22 402.166 2420.09 402.166C2396.41 402.166 2377.65 395.483 2363.81 382.117C2350.21 368.516 2343.41 349.639 2343.41 325.487V259.36C2343.41 245.056 2343.29 234.504 2343.06 227.703C2342.83 220.669 2342.59 215.979 2342.36 213.634C2342.36 211.054 2342.24 209.413 2342 208.709L2320.9 203.785L2321.6 192.53Z" fill="white"/>
<path d="M1463.46 629L1463.07 622.787L1474.13 620.263C1474.26 619.745 1474.33 618.839 1474.33 617.545C1474.46 616.121 1474.52 613.597 1474.52 609.972C1474.65 606.219 1474.72 600.653 1474.72 593.275L1474.91 549.977C1474.91 542.858 1474.85 537.551 1474.72 534.056C1474.59 530.432 1474.46 527.973 1474.33 526.678C1474.33 525.384 1474.26 524.607 1474.13 524.348L1462.48 521.242L1462.87 515.029H1500.35C1511.74 515.029 1520.8 517.876 1527.53 523.572C1534.39 529.138 1537.82 537.163 1537.82 547.647C1537.82 554.896 1535.94 561.109 1532.19 566.287C1528.56 571.335 1523.84 575.218 1518.01 577.936C1512.19 580.654 1506.04 582.014 1499.57 582.014C1496.33 582.014 1493.36 581.884 1490.64 581.625C1488.05 581.237 1485.65 580.849 1483.45 580.46V571.529C1486.95 572.435 1489.86 573.082 1492.19 573.471C1494.52 573.729 1496.72 573.859 1498.79 573.859C1507.08 573.859 1513.55 571.982 1518.21 568.228C1523 564.475 1525.39 558.391 1525.39 549.977C1525.39 540.528 1522.87 533.603 1517.82 529.202C1512.77 524.672 1506.62 522.407 1499.37 522.407H1486.75C1486.75 523.183 1486.69 525.06 1486.56 528.037C1486.56 530.885 1486.5 534.315 1486.37 538.328C1486.37 542.211 1486.37 546.094 1486.37 549.977L1486.56 593.275C1486.56 600.653 1486.56 606.154 1486.56 609.778C1486.69 613.273 1486.82 615.668 1486.95 616.962C1487.08 618.257 1487.14 619.227 1487.14 619.875L1503.45 622.399L1503.06 629H1463.46ZM1558.01 629L1557.62 622.787L1569.27 620.263C1569.4 619.616 1569.47 618.257 1569.47 616.186C1569.6 613.985 1569.66 610.943 1569.66 607.06C1569.79 603.177 1569.85 598.258 1569.85 592.304V551.919C1569.85 545.835 1569.79 540.852 1569.66 536.969C1569.66 532.956 1569.6 529.914 1569.47 527.843C1569.47 525.643 1569.4 524.284 1569.27 523.766L1557.62 521.242L1558.01 515.029H1593.93L1594.32 521.242L1582.67 523.766C1582.54 524.154 1582.35 525.254 1582.09 527.067C1581.96 528.879 1581.83 531.726 1581.7 535.61C1581.7 539.493 1581.7 544.929 1581.7 551.919V592.304C1581.7 599.035 1581.7 604.407 1581.7 608.419C1581.83 612.302 1581.96 615.15 1582.09 616.962C1582.35 618.645 1582.54 619.745 1582.67 620.263L1594.32 622.787L1593.93 629H1558.01ZM1692.37 629.777C1691.33 629.647 1690.04 629.518 1688.49 629.388C1687.06 629.259 1685.51 629.129 1683.83 629C1682.27 629 1680.72 629 1679.17 629H1615.29L1614.9 622.787L1626.55 620.263C1626.68 619.616 1626.81 618.321 1626.94 616.38C1627.07 614.309 1627.13 611.332 1627.13 607.448C1627.26 603.436 1627.33 598.388 1627.33 592.304V551.919C1627.33 545.706 1627.33 540.658 1627.33 536.775C1627.33 532.891 1627.26 529.914 1627.13 527.843C1627 525.772 1626.81 524.478 1626.55 523.96L1614.9 521.242L1615.29 515.029H1656.06L1656.45 521.63L1640.33 523.96C1640.08 524.348 1639.88 525.513 1639.75 527.455C1639.62 529.267 1639.49 532.179 1639.36 536.192C1639.36 540.075 1639.36 545.318 1639.36 551.919V592.304C1639.36 598.647 1639.36 604.471 1639.36 609.778C1639.49 614.956 1639.62 618.127 1639.75 619.292C1641.3 619.422 1642.92 619.551 1644.61 619.68C1646.29 619.68 1648.1 619.68 1650.04 619.68H1668.68C1671.53 619.68 1673.99 619.68 1676.06 619.68C1678.13 619.551 1680.33 619.357 1682.66 619.098L1692.37 601.041L1699.55 602.594L1692.37 629.777ZM1701.3 629L1700.91 622.787L1710.43 620.263L1750.42 517.165L1759.35 511.534L1800.52 620.263L1810.03 622.787L1809.64 629H1776.44L1776.05 622.787L1787.7 620.263L1775.86 589.586L1773.72 583.955L1751.59 527.843L1755.66 523.378L1733.34 584.149L1731.2 589.974L1720.33 620.263L1731.98 622.787L1731.59 629H1701.3ZM1726.73 591.722V582.79C1729.19 582.92 1732.82 583.049 1737.61 583.179C1742.4 583.308 1748.16 583.373 1754.89 583.373C1761.49 583.373 1767.18 583.308 1771.97 583.179C1776.76 583.049 1780.32 582.92 1782.65 582.79V591.722C1777.22 591.592 1772.1 591.527 1767.31 591.527C1762.52 591.398 1758.38 591.333 1754.89 591.333C1751.52 591.333 1747.51 591.398 1742.85 591.527C1738.19 591.527 1732.82 591.592 1726.73 591.722ZM1900.7 514.252L1904.97 544.347L1897.98 545.318L1889.63 523.572C1888.86 523.313 1887.82 523.183 1886.53 523.183C1885.23 523.054 1884.13 522.989 1883.23 522.989H1876.04C1874.75 522.989 1872.81 522.989 1870.22 522.989C1867.63 522.989 1865.23 523.054 1863.03 523.183C1863.03 524.219 1862.97 526.614 1862.84 530.367C1862.84 534.121 1862.84 538.393 1862.84 543.182C1862.84 547.971 1862.84 552.501 1862.84 556.773V586.868C1862.84 595.54 1862.9 602.918 1863.03 609.002C1863.16 615.085 1863.23 618.839 1863.23 620.263L1879.34 622.399L1878.96 629H1834.69L1834.3 622.399L1850.41 620.263C1850.41 618.839 1850.48 615.085 1850.61 609.002C1850.74 602.918 1850.8 595.54 1850.8 586.868V556.773C1850.8 552.501 1850.8 547.971 1850.8 543.182C1850.8 538.393 1850.8 534.121 1850.8 530.367C1850.8 526.614 1850.74 524.219 1850.61 523.183C1848.54 523.054 1846.21 522.989 1843.62 522.989C1841.03 522.989 1839.02 522.989 1837.6 522.989H1829.83C1828.93 522.989 1827.89 523.054 1826.73 523.183C1825.69 523.183 1824.78 523.313 1824.01 523.572L1815.47 545.512L1808.48 544.347L1812.75 514.252C1814.3 514.382 1815.66 514.511 1816.82 514.64C1818.12 514.77 1819.28 514.899 1820.32 515.029C1821.48 515.029 1822.58 515.029 1823.62 515.029C1824.78 515.029 1826.08 515.029 1827.5 515.029H1885.94C1887.37 515.029 1888.6 515.029 1889.63 515.029C1890.8 515.029 1891.9 515.029 1892.93 515.029C1893.97 514.899 1895.07 514.77 1896.24 514.64C1897.53 514.511 1899.02 514.382 1900.7 514.252ZM1999.92 629.971C1995.9 629.453 1992.99 629.129 1991.18 629C1989.5 629 1987.75 629 1985.94 629H1919.34L1918.95 622.787L1930.6 620.263C1930.73 619.616 1930.8 618.257 1930.8 616.186C1930.92 613.985 1930.99 610.943 1930.99 607.06C1931.12 603.047 1931.18 598.129 1931.18 592.304V551.919C1931.18 545.965 1931.12 540.981 1930.99 536.969C1930.99 532.956 1930.92 529.914 1930.8 527.843C1930.8 525.643 1930.73 524.284 1930.6 523.766L1918.95 521.242L1919.34 515.029H1983.02C1984.45 515.029 1985.74 515.029 1986.91 515.029C1988.07 515.029 1989.43 514.964 1990.98 514.835C1992.67 514.705 1994.87 514.511 1997.59 514.252L2000.89 538.522L1993.31 539.687L1987.1 523.766C1986.45 523.637 1985.48 523.572 1984.19 523.572C1983.02 523.442 1981.73 523.378 1980.31 523.378H1954.68C1952.22 523.378 1950.15 523.442 1948.46 523.572C1946.78 523.572 1945.03 523.701 1943.22 523.96C1943.22 524.348 1943.16 525.772 1943.03 528.232C1943.03 530.691 1942.96 533.474 1942.83 536.58C1942.83 539.687 1942.83 542.47 1942.83 544.929V602.983C1942.83 604.795 1942.83 606.931 1942.83 609.39C1942.96 611.72 1943.03 613.856 1943.03 615.797C1943.16 617.739 1943.22 619.033 1943.22 619.68C1944.77 619.81 1946.39 619.939 1948.08 620.069C1949.76 620.198 1951.51 620.263 1953.32 620.263H1976.23C1978.82 620.263 1981.02 620.263 1982.83 620.263C1984.77 620.133 1986.32 620.004 1987.49 619.875C1988.65 619.745 1989.5 619.616 1990.01 619.486L1999.92 601.429L2007.29 602.983L1999.92 629.971ZM1979.92 588.809L1977.39 575.412C1976.75 575.153 1975.71 574.959 1974.29 574.83C1972.99 574.7 1971.37 574.636 1969.43 574.636H1952.54C1951.12 574.636 1949.37 574.7 1947.3 574.83C1945.36 574.83 1943.09 574.894 1940.5 575.024V565.898C1943.09 566.028 1945.36 566.093 1947.3 566.093C1949.37 566.093 1951.12 566.093 1952.54 566.093H1969.43C1971.37 566.093 1972.99 566.093 1974.29 566.093C1975.71 565.963 1976.75 565.769 1977.39 565.51L1979.92 551.725H1986.91V588.809H1979.92ZM2057.39 630.747C2051.69 630.747 2045.93 630.1 2040.11 628.806C2034.41 627.382 2029.88 625.699 2026.52 623.758L2025.35 600.459L2031.76 599.682L2036.61 615.603C2039.98 617.674 2043.6 619.357 2047.48 620.651C2051.37 621.816 2055.7 622.399 2060.49 622.399C2067.1 622.399 2072.53 620.716 2076.8 617.35C2081.07 613.985 2083.21 609.325 2083.21 603.371C2083.21 598.711 2081.79 594.828 2078.94 591.722C2076.22 588.615 2072.66 585.897 2068.26 583.567C2063.99 581.108 2059.39 578.778 2054.47 576.577C2049.69 574.247 2045.09 571.658 2040.69 568.811C2036.42 565.963 2032.86 562.533 2030.01 558.52C2027.29 554.508 2025.93 549.524 2025.93 543.57C2025.93 537.616 2027.55 532.374 2030.79 527.843C2034.15 523.183 2038.68 519.559 2044.38 516.97C2050.2 514.382 2056.8 513.087 2064.18 513.087C2067.81 513.087 2071.11 513.281 2074.08 513.67C2077.06 513.929 2079.78 514.382 2082.24 515.029C2084.83 515.676 2087.16 516.453 2089.23 517.359L2090.39 539.493L2083.99 540.269L2078.94 525.319C2074.93 522.472 2069.3 521.048 2062.05 521.048C2054.93 521.048 2049.23 522.795 2044.96 526.29C2040.69 529.785 2038.55 534.251 2038.55 539.687C2038.55 544.476 2039.91 548.554 2042.63 551.919C2045.48 555.284 2049.04 558.197 2053.31 560.656C2057.71 563.115 2062.37 565.51 2067.29 567.84C2072.21 570.04 2076.8 572.565 2081.07 575.412C2085.48 578.13 2089.03 581.431 2091.75 585.314C2094.6 589.197 2096.02 593.987 2096.02 599.682C2096.02 605.636 2094.34 610.943 2090.98 615.603C2087.61 620.263 2083.02 623.952 2077.19 626.67C2071.37 629.388 2064.77 630.747 2057.39 630.747Z" fill="white"/>
</svg>
