<svg width="2531" height="876" viewBox="0 0 2531 876" fill="none" xmlns="http://www.w3.org/2000/svg">
<path d="M1037 550.117L1037 548.001L1323.64 548.001L1323.64 550.117L1037 550.117Z" fill="black"/>
<path d="M2233.28 550.117L2233.28 548.001L2519.93 548.001L2519.93 550.117L2233.28 550.117Z" fill="black"/>
<ellipse cx="138.519" cy="737.408" rx="29.3432" ry="26.4297" fill="black"/>
<path d="M414.18 0.0820312H448.837C448.968 0.106631 449.099 0.132682 449.231 0.15583C457.579 1.62328 466.603 1.40539 475.077 2.26287C491.297 3.95959 507.41 6.60814 523.336 10.1955C626.098 33.5112 716.83 95.008 778.074 182.853C815.576 236.475 840.692 298.159 851.508 363.225C853.455 374.679 854.911 386.215 855.868 397.8C856.4 404.406 856.192 412.806 857.532 419.113V455.573L857.457 456.03C856.267 464.15 856.367 472.595 855.585 480.786C853.971 497.214 851.475 513.538 848.113 529.685C826.336 632.968 768.873 724.67 686.343 787.85C633.588 828.359 572.361 855.695 507.52 867.693C496.238 869.76 484.882 871.399 473.479 872.586C467.768 873.124 455.135 873.184 450.482 874.551H413.289C407.486 873.167 398.869 873.389 392.729 872.86C381.517 871.775 370.347 870.272 359.243 868.334C295.917 857.206 235.883 831.446 183.675 793.013C97.6117 729.851 37.5086 636.095 15.052 529.977C11.6073 513.451 9.05831 496.743 7.41684 479.928C6.64775 471.906 6.95026 463.436 5.61055 455.532C5.58816 455.399 5.56289 455.268 5.53906 455.136V419.546C6.84798 414.016 6.67437 404.005 7.1731 397.812C8.20297 386.308 9.65256 374.847 11.5188 363.454C22.272 298.69 47.1687 237.264 84.3429 183.78C145.6 95.3547 236.703 33.4658 339.943 10.1431C356.319 6.48032 372.886 3.7878 389.564 2.07889C397.519 1.27136 405.968 1.57322 413.794 0.156682C413.923 0.133331 414.051 0.106915 414.18 0.0820312Z" fill="black"/>
<path d="M284.06 56.8577C292.642 54.1779 301.057 50.9926 309.626 48.2763C325.422 43.2605 341.484 39.1249 357.739 35.8899C445.656 19.4515 536.544 32.7056 616.105 73.5679C648.478 90.3899 678.423 111.521 705.122 136.383C701.862 146.728 701.61 158.074 697.782 168.093C694.498 176.682 688.253 183.603 684.986 192.361C687.054 189.935 688.52 187.029 690.319 184.399C692.619 181.039 695.16 177.7 697.018 174.072C702.602 163.17 704.27 150.33 707.454 138.567C717.953 148.547 727.953 159.04 737.415 170.007C741.437 174.604 746.19 179.57 749.184 184.899C746.58 193.299 742.441 201.133 738.565 208.998C730.18 226.155 720.866 242.841 710.662 258.981C706.002 266.267 700.901 273.31 696.052 280.473C692.428 285.823 688.775 293.012 683.92 297.225C676.044 304.057 661.801 308.499 652.633 315.67C659.028 313.57 665.011 310.563 671.229 308.018C676.069 306.036 682.12 304.873 686.319 301.72C691.386 297.915 695.22 292.192 699.034 287.207C716.839 263.936 727.999 244.148 741.786 218.587C746.004 210.766 750.642 203.031 754.584 195.082C754.968 194.307 755.312 193.507 755.648 192.71C771.319 213.56 792.179 247.651 801.048 272.028C796.834 278.933 789.58 285.159 784.091 291.155C761.781 315.526 757.29 324.345 724.123 332.386C710.347 335.634 696.419 338.203 682.392 340.084C662.85 342.569 639.869 339.643 622.624 350.571C611.898 357.369 607.307 369.409 597.702 377.483C588.535 385.19 575.363 389.776 565.009 397.037C535.27 388.427 508.1 373.646 485.854 352.015C460.559 327.418 454.754 299.368 414.879 293.148C395.729 290.161 375.905 291.86 356.795 294.3C347.866 295.44 338.559 297.184 329.552 297.119C362.356 285.187 380.838 283.419 415.985 285.265C414.06 269.647 417.294 249.157 427.418 236.58C430.075 233.277 433.067 231.697 437.27 231.273C441.905 230.805 446.696 231.714 451.35 231.771C465.894 231.949 479.262 226.112 490.322 217.014C492.204 223.615 495.21 229.217 501.509 232.586C507.263 235.663 514.457 235.728 520.574 233.741C530.163 230.627 538.455 222.682 542.862 213.724C546.704 205.917 548.472 195.826 545.592 187.432C543.465 181.235 538.906 175.743 532.895 172.97C528.655 171.014 523.471 170.542 519.025 172.105C517.374 172.685 515.838 173.625 514.364 174.554C517.241 156.449 512.856 139.557 502.125 124.677C491.203 109.53 474.298 98.4908 455.769 95.5154C437.534 92.5872 419.828 97.836 405.055 108.606C388.353 120.782 389.359 123.865 367.341 123.171C365.19 123.103 363.54 123.117 362.238 125.057C361.536 126.104 361.139 127.262 360.981 128.508C360.351 133.453 364.888 141.552 360.676 145.25C358.489 147.17 354.749 147.768 352.18 149.273L353.4 155.499C351.764 157.89 349.968 160.07 348.099 162.28C347.859 164.492 347.789 167.228 346.807 169.24C343.902 175.193 333.022 181.765 338.428 188.652C346.418 198.831 365.655 203.953 371.682 217.914C369.277 240.934 352.428 263.08 335.066 277.235C305.419 301.408 263.498 311.372 242.767 345.603C238.191 353.161 234.987 361.48 234.094 370.303C232.884 382.256 236.993 393.383 236.563 405.135C236.281 412.828 234.466 420.587 233.316 428.202C231.748 438.586 231.192 448.901 231.401 459.404C222.101 466.49 212.791 478.218 203.273 483.637C193.737 489.066 181.411 492.108 170.933 495.521C164.705 497.549 158.5 499.58 152.369 501.892C146.802 503.991 141.228 506.435 135.506 508.064C103.422 517.205 69.1738 520.764 40.9733 540.115C29.0859 494.116 26.1167 447.647 29.6181 400.369C37.1268 405.682 44.614 411.038 52.1921 416.251C57.8799 420.163 64.6241 423.568 69.3125 428.694C74.9243 434.829 76.5535 443.786 80.6286 450.872C88.1729 463.993 102.898 468.331 115.5 474.952C121.88 478.303 128.113 482.225 134.673 485.191L134.115 484.716C126.645 478.438 117.076 472.927 108.548 468.153C102.641 464.846 96.1718 461.853 91.1194 457.289C82.6911 449.676 80.7162 437.069 74.5324 427.926C73.0986 425.806 70.8387 423.985 68.8185 422.422C64.3227 418.944 59.2761 416.188 54.6455 412.887C46.6428 407.183 38.8549 400.666 30.2992 395.817C36.6033 334.106 55.2839 278.246 86.3626 224.578C95.647 208.544 106.317 191.684 118.508 177.706C122.534 185.905 127.139 193.938 132.005 201.667C134.66 205.885 137.973 210.027 140.101 214.527C144.692 224.232 144.351 235.388 148.109 245.395C151.188 253.594 155.857 261.564 160.409 269.038C162.683 272.773 165.273 276.486 167.079 280.473C171.034 289.201 172.882 299.505 175.363 308.774C178.054 318.825 181.117 328.772 183.828 338.815C184.795 342.395 187.595 345.886 190.01 348.648C193.472 352.608 218.863 375.955 222.928 378.185C223.11 378.284 223.293 378.376 223.476 378.473C224.564 377.742 224.771 376.815 225.179 375.64C224.608 370.501 196.767 346.165 192.049 336.228C184.927 321.23 182.564 298.665 176.697 282.434C172.282 270.223 163.621 259.145 158.362 246.957C154.138 237.171 154.579 226.18 150.832 216.227C146.966 205.961 139.248 197.865 134.385 188.181C131.026 181.492 129.86 173.998 126.774 167.197C170.263 119.285 221.038 81.3174 281.739 57.9207C281.824 60.3059 281.747 62.8306 282.179 65.1782C282.419 63.3794 282.176 61.6183 282.294 59.8225C282.403 58.1807 282.812 57.8582 284.06 56.8577Z" fill="url(#paint0_linear_1_1668)"/>
<path d="M284.057 56.8574C284.602 60.5463 284.526 64.4451 285.365 68.0541C287.288 76.3283 291.788 82.0008 289.513 91.131C289.468 92.4733 288.999 93.7877 288.661 95.0809C287.755 98.5454 286.836 102.043 286.358 105.597C285.714 110.386 285.719 115.423 284.131 120.019C284.313 114.03 283.47 107.513 284.324 101.646C285.027 96.8228 286.876 92.4425 287.151 87.5086C286.591 79.6927 282.335 73.0304 282.176 65.1779C282.416 63.3792 282.173 61.618 282.291 59.8222C282.4 58.1805 282.809 57.8579 284.057 56.8574Z" fill="#252525"/>
<path d="M372.379 349.11C381.865 348.383 390.829 350.046 399.732 353.343C426.449 363.238 457.654 390.267 481.533 406.669C494.469 415.554 508.049 422.603 521.67 430.298C508.075 442.978 500.736 460.462 484.77 470.967C467.845 482.103 452.771 482.726 434.57 488.579C425.555 491.478 381.384 512.996 374.98 519.319C386.91 515.368 398.379 510.474 409.79 505.23C417.782 501.559 425.759 497.504 434.02 494.474C444.11 490.774 454.99 490.142 465.325 487.338C494.856 479.325 510.636 456.173 528.243 433.331C537.339 436.6 546.157 440.253 555.532 442.718C579.414 448.999 602.667 449.193 627.179 448.765C638.647 448.661 650.113 448.361 661.571 447.866C673.186 447.322 689.731 444.336 700.702 446.672C697.434 450.808 693.686 454.451 691.111 459.108C682.604 474.493 692.414 480.177 690.39 492.208C689.737 496.096 687.869 499.282 686.038 502.716C679.537 514.66 671.532 525.711 663.445 536.616C655.876 546.827 648.249 556.994 640.565 567.118C633.721 575.955 626.617 584.544 620.219 593.721C603.888 617.145 592.072 644.094 588.828 672.579C579.285 668.444 570.259 663.184 561.119 658.248C550.24 652.418 539.293 646.714 528.284 641.136C508.396 631.062 488.353 621.07 468.162 611.622C457.563 606.663 446.75 602.16 436.197 597.106C417.185 527.583 357.05 539.506 336.56 496.089C329.677 481.507 329.968 464.945 335.341 449.948C345.936 420.374 381.661 377.599 409.992 364.062C404.705 360.938 398.647 358.802 392.775 357.08C388.126 355.716 370.549 352.64 367.905 350.442C368.975 349.491 370.98 349.371 372.379 349.11Z" fill="url(#paint1_linear_1_1668)"/>
<path d="M567.77 483.911C573.163 483.317 578.116 485.525 583.116 487.256C597.753 492.323 602.292 494.46 611.509 507.186C614.276 511.005 616.925 514.798 620.405 518.017C629.619 526.538 640.526 533.291 651.249 539.687L648.555 543.802C648.109 544.487 647.81 545.11 647.056 545.499C645.72 546.188 642.163 542.981 640.906 542.18C630.898 535.797 619.427 527.592 612.244 517.997C607.543 511.717 604.092 503.912 597.978 498.828C590.715 492.788 576.727 487.242 567.77 483.911Z" fill="#252525"/>
<path d="M421.778 0.150796C438.181 -0.290021 454.596 0.235821 470.936 1.72582C585.627 12.4639 691.284 68.5421 764.453 157.512C837.944 246.682 873.132 361.329 862.319 476.374C851.553 593.335 794.557 701.164 703.976 775.937C614.908 849.574 505.903 885.029 390.578 873.939C319.918 867.144 252.718 842.06 192.898 804.248C183.507 798.222 174.369 791.813 165.506 785.036C160.97 781.624 156.457 777.53 151.626 774.574C147.883 772.286 143.447 772.029 139.224 771.144C127.692 768.725 116.267 762.685 108.767 753.453C99.6237 742.199 98.5241 729.457 99.9511 715.532C46.2826 650.965 12.5749 572.17 2.94406 488.765C-10.8198 367.607 24.0441 251.418 99.8317 156.241C105.127 157.782 108.399 161.381 112.041 165.275C102.308 178.858 92.349 192.231 83.4334 206.379C48.014 261.735 25.81 324.501 18.5425 389.817C6.10527 500.819 38.0245 612.239 107.35 699.817L113.821 689.067C80.3887 644.195 56.0802 597.316 41.6886 543.044C62.6106 532.918 86.4839 526.355 109.074 521.134C118.136 519.039 127.307 517.51 136.292 515.074C148.775 511.69 161.014 506.247 173.384 502.256C184.629 498.629 197.949 495.81 207.889 489.435C217.148 483.497 224.379 474.36 232.209 466.719C232.808 509.706 242.431 538.851 263.854 575.522C274.726 593.694 288.094 610.586 304.445 624.13C312.012 630.397 320.679 635.807 327.571 642.829L328.083 643.356C301.079 631.131 277.96 611.708 261.261 587.217C231.077 607.727 198.391 624.568 168.939 646.207C145.184 663.659 116.599 690.304 112.084 720.636C110.765 729.498 110.926 738.502 116.556 745.978C125.312 757.604 142.423 761.542 156.107 762.756C175.007 764.432 192.943 760.971 211.587 758.785C225.516 757.151 239.606 756.222 253.578 754.966C292.269 751.428 331.198 751.332 369.907 754.678C380.741 755.697 391.6 757.374 402.38 758.872C407.398 768.929 407.444 781.1 413.094 790.614C420.287 802.725 436.856 808.379 447.375 817.161C457.999 826.03 465.379 836.503 477.138 845.615C405.696 856.045 324.445 840.002 259.782 808.913C237.747 798.318 217.719 785.79 197.209 772.6C190.77 772.625 184.268 773.483 177.815 773.728C252.967 829.334 343.325 861.624 437.249 860.288C546.868 858.03 651.066 812.175 726.78 732.872C805.631 652.515 849.352 544.138 848.333 431.559C847.23 318.71 800.892 211.023 719.704 132.634C640.45 55.5863 533.617 13.5243 423.109 15.858C339.025 18.0585 257.537 45.4536 189.2 94.4953C163.644 113.051 140.57 134.694 118.755 157.457C113.863 155.451 109.001 153.374 104.17 151.229C107.258 147.691 110.394 144.196 113.577 140.743C180.208 68.1233 269.514 20.269 366.882 5.00913C385.111 2.17588 403.363 0.914861 421.778 0.150796Z" fill="url(#paint2_linear_1_1668)"/>
<path d="M689.577 589.416C696.911 595.773 703.943 602.745 712.911 606.757C719.311 609.621 726.21 611.51 732.4 614.824C739.027 618.371 744.761 623.397 751.851 626.124C762.226 630.113 773.261 632.352 783.661 636.39C768.002 667.329 745.7 696.305 721.59 721.142C717.101 716.205 712.591 711.119 707.157 707.198C702.583 703.896 697.291 701.827 692.465 698.955C688.164 696.394 674.607 684.703 671.523 680.936C671.422 680.813 671.335 680.679 671.239 680.551L670.425 680.946L670.074 680.141L670.681 681.088L670.764 680.908L670.903 681.492C676.37 686.381 680.493 692.947 685.898 697.989C691.107 702.851 697.709 705.413 703.24 709.814C708.668 714.132 712.896 720.099 718.192 724.702C703.604 740.605 686.678 754.639 669.426 767.524C613.471 809.316 554.856 834.055 485.787 844.485C480.163 839.389 474.118 834.736 468.603 829.526C462.369 823.637 456.51 816.839 449.628 811.726C439.933 804.524 424.769 799.975 417.653 789.678C413.706 783.966 412.631 776.468 410.541 769.947C409.339 766.197 407.772 762.646 406.102 759.084C412.766 760.391 420.244 760.355 427.029 760.493C443.141 760.824 459.209 760.255 475.309 759.733C483.468 759.469 494.04 760.15 501.781 758.082C504.301 757.408 506.555 756.532 507.906 754.2C507.929 752.927 507.836 752.312 507.007 751.297C505.808 749.828 503.878 748.687 502.233 747.755C496.276 744.38 489.844 741.761 483.765 738.593C478.099 735.64 472.786 731.53 466.699 729.498C461.845 727.877 456.665 727.669 451.601 727.258C445.887 726.727 439.517 726.622 434.024 724.915C427.082 722.757 422.85 716.054 417.471 711.572C413.116 707.993 408.379 704.907 403.345 702.371C398.216 699.768 385.641 693.763 379.991 695.887C374.644 697.898 375.042 707.097 372.756 711.536C371.622 713.739 369.921 715.308 367.448 715.814C356.18 718.118 313.939 704.999 299.491 701.865C266.106 694.621 237.07 690.463 204.046 702.54C193.274 706.478 182.997 711.919 172.123 715.502L171.34 715.756C178.719 709.098 187.265 704.08 196.156 699.719C207.247 694.143 219.01 690.016 231.154 687.439C254.066 682.635 277.41 682.4 299.925 675.343C315.764 670.379 329.254 662.535 342.679 653.026C362.041 665.106 380.712 677.024 401.417 686.804C454.098 711.687 522.626 732.767 580.838 736.172C590.619 736.744 603.282 737.823 612.507 734.269C646.937 721.001 674.523 623.547 689.577 589.416Z" fill="url(#paint3_linear_1_1668)"/>
<path d="M804.349 280.492C809.135 286.24 820.659 325.892 822.916 334.6C844.817 418.648 839.334 507.491 807.264 588.208C801.285 603.131 794.753 618.148 786.578 632.013C776.925 626.603 766.469 624.607 756.18 620.879C748.197 617.985 741.631 612.875 734.164 609.053C729.251 606.537 723.607 605.742 718.55 603.59C708.753 599.42 699.83 589.419 692.241 582.165C697.651 568.841 703.73 555.797 709.334 542.553C714.218 531.01 718.603 519.218 723.658 507.755C731.165 490.732 739.006 474.302 745.43 456.778C754.693 430.954 761.061 404.714 762.087 377.273C762.313 371.207 762.71 364.858 761.19 358.918C760.415 355.89 759.238 352.534 756.422 350.896C755.593 350.854 755.117 350.705 754.341 351.085C745.388 355.472 741.144 381.196 737.676 390.212C733.283 401.635 725.261 413.864 713.611 418.894C704.748 422.721 694.033 423.426 684.506 423.06C674.866 422.689 665.246 420.73 655.754 419.112C636.392 415.904 617.191 411.79 598.213 406.786C590.069 404.661 581.629 402.664 573.777 399.6C579.974 395.241 587.234 391.19 594.027 387.806C599.203 385.229 605.226 383.118 609.727 379.468C618.203 372.599 619.287 360.081 630.094 355.301C643.093 349.553 659.557 349.226 673.531 347.963C698.903 345.669 740.255 340.74 760.458 325.126C768.821 318.664 775.844 310.525 783.043 302.835L804.349 280.492Z" fill="url(#paint4_linear_1_1668)"/>
<path d="M760.606 439.619C771.551 444.257 784.178 450.547 790.736 460.892C795.35 468.167 799.096 475.005 804.848 481.555C809.121 486.419 815.624 489.038 819.599 494.01C811.71 491.528 798.482 480.437 793.4 473.972C789.848 469.455 787 464.492 782.801 460.506C776.442 454.468 767.814 449.836 760.301 445.344L760.606 439.619Z" fill="#252525"/>
<path d="M359.56 373.051L359.931 373.361C358.014 378.787 327.941 400.215 321.148 406.424C316.054 411.081 311.602 416.234 307.56 421.825C287.164 450.034 282.131 481.512 287.609 515.49C289.916 529.41 293.979 542.98 299.702 555.877C323.424 610.401 371.186 640.352 421.946 666.582C439.161 675.478 457.628 681.937 473.455 693.337L465.497 691.836C448.227 686.791 431.95 679.373 415.828 671.439C372.875 650.303 327.345 621.544 303.66 578.461C283.431 541.664 269.86 496.09 282.127 454.587C291.13 424.125 311.669 401.761 338.024 385.098C344.946 380.721 352.367 376.968 359.56 373.051Z" fill="url(#paint5_linear_1_1668)"/>
<path d="M457.717 175.352C458.872 175.645 459.955 175.861 460.792 176.79C461.914 178.035 462.112 179.645 462.06 181.248C461.896 186.391 457.773 192.443 454.139 195.767C448.051 201.337 441.663 202.529 433.745 202.041C432.905 201.621 431.91 201.148 431.246 200.454C430.366 199.534 430.035 198.734 429.961 197.496C432.864 194.716 439.79 196.819 443.666 195.637C448.89 194.046 454.036 188.592 455.358 183.317C455.918 181.082 456.095 177.965 457.292 176.008C457.428 175.786 457.575 175.57 457.717 175.352Z" fill="url(#paint6_linear_1_1668)"/>
<path d="M1055.4 386L1054.7 374.744L1075.8 369.468C1075.8 367.827 1075.8 365.482 1075.8 362.434C1076.04 359.151 1076.15 355.399 1076.15 351.178C1076.15 346.723 1076.15 341.798 1076.15 336.405C1076.39 331.012 1076.51 325.384 1076.51 319.521V246.36C1076.51 235.104 1076.39 225.959 1076.15 218.924C1076.15 211.655 1076.04 206.144 1075.8 202.393C1075.8 198.641 1075.68 196.296 1075.45 195.358L1054.35 190.785L1055.05 179.53H1125.05C1144.74 179.53 1160.1 183.868 1171.12 192.544C1182.38 200.986 1188.01 213.179 1188.01 229.125C1188.01 240.615 1184.96 250.932 1178.86 260.078C1172.76 268.988 1164.21 276.023 1153.18 281.182C1142.4 286.106 1129.97 288.568 1115.9 288.568H1092.69V274.851H1115.9C1131.85 274.851 1144.04 271.216 1152.48 263.947C1160.92 256.677 1165.14 246.36 1165.14 232.994C1165.14 219.862 1161.39 209.896 1153.89 203.096C1146.62 196.296 1135.95 192.896 1121.88 192.896H1098.31C1098.08 193.365 1097.84 193.834 1097.61 194.303C1097.61 194.772 1097.61 196.178 1097.61 198.523C1097.61 200.868 1097.61 205.324 1097.61 211.889C1097.61 218.221 1097.61 227.6 1097.61 240.029V319.521C1097.61 331.715 1097.61 341.095 1097.61 347.661C1097.84 353.992 1098.08 358.682 1098.31 361.73C1098.55 364.778 1098.78 367.358 1099.02 369.468L1120.12 374.744L1119.42 386H1055.4ZM1214.03 389.166C1205.12 389.166 1197.15 387.29 1190.12 383.538C1183.32 379.786 1176.28 373.337 1169.01 364.192C1161.98 355.047 1153.54 342.384 1143.69 326.204L1117.66 282.589L1138.06 278.016L1174.29 332.887C1181.56 343.909 1187.89 352.468 1193.28 358.564C1198.91 364.661 1204.3 369.117 1209.46 371.93C1214.62 374.744 1220.25 376.62 1226.35 377.558L1225.99 388.11C1224.35 388.579 1222.36 388.814 1220.01 388.814C1217.9 389.048 1215.91 389.166 1214.03 389.166ZM1390.96 387.759C1383.69 386.821 1378.41 386.234 1375.13 386C1372.08 386 1368.92 386 1365.63 386H1244.99L1244.28 374.744L1265.39 370.172C1265.62 368.999 1265.74 366.537 1265.74 362.785C1265.97 358.799 1266.09 353.288 1266.09 346.254C1266.33 338.984 1266.44 330.074 1266.44 319.521V246.36C1266.44 235.573 1266.33 226.545 1266.09 219.276C1266.09 212.007 1265.97 206.496 1265.74 202.744C1265.74 198.758 1265.62 196.296 1265.39 195.358L1244.28 190.785L1244.99 179.53H1360.36C1362.94 179.53 1365.28 179.53 1367.39 179.53C1369.5 179.53 1371.97 179.412 1374.78 179.178C1377.83 178.943 1381.81 178.592 1386.74 178.123L1392.72 222.09L1379 224.2L1367.74 195.358C1366.57 195.123 1364.81 195.006 1362.47 195.006C1360.36 194.772 1358.01 194.654 1355.43 194.654H1309C1304.55 194.654 1300.8 194.772 1297.75 195.006C1294.7 195.006 1291.53 195.241 1288.25 195.709C1288.25 196.413 1288.13 198.992 1287.9 203.448C1287.9 207.903 1287.78 212.945 1287.55 218.572C1287.55 224.2 1287.55 229.242 1287.55 233.697V338.867C1287.55 342.15 1287.55 346.019 1287.55 350.474C1287.78 354.695 1287.9 358.564 1287.9 362.082C1288.13 365.599 1288.25 367.944 1288.25 369.117C1291.07 369.351 1294 369.586 1297.05 369.82C1300.09 370.055 1303.26 370.172 1306.54 370.172H1348.05C1352.74 370.172 1356.72 370.172 1360.01 370.172C1363.52 369.937 1366.34 369.703 1368.45 369.468C1370.56 369.234 1372.08 368.999 1373.02 368.765L1390.96 336.053L1404.33 338.867L1390.96 387.759ZM1354.73 313.19L1350.16 288.92C1348.99 288.451 1347.11 288.099 1344.53 287.865C1342.18 287.63 1339.25 287.513 1335.74 287.513H1305.14C1302.56 287.513 1299.39 287.63 1295.64 287.865C1292.12 287.865 1288.02 287.982 1283.33 288.217V271.685C1288.02 271.919 1292.12 272.037 1295.64 272.037C1299.39 272.037 1302.56 272.037 1305.14 272.037H1335.74C1339.25 272.037 1342.18 272.037 1344.53 272.037C1347.11 271.802 1348.99 271.451 1350.16 270.982L1354.73 246.008H1367.39V313.19H1354.73ZM1543.97 386L1543.26 374.744L1566.13 371.227C1564.25 368.648 1562.02 365.834 1559.44 362.785C1556.86 359.502 1554.17 356.337 1551.35 353.288L1492.26 287.865H1477.14V276.609L1497.54 270.982L1569.99 195.709L1548.89 190.785L1549.24 179.53H1611.85L1612.2 191.489L1593.56 195.006L1505.27 280.478L1507.03 272.388L1573.86 344.143C1577.15 347.426 1580.19 350.709 1583.01 353.992C1585.82 357.04 1588.4 359.971 1590.75 362.785C1593.33 365.365 1595.67 367.592 1597.78 369.468L1615.02 374.393V386H1543.97ZM1436.69 386L1435.98 374.744L1457.09 370.172C1457.56 368.296 1457.91 363.371 1458.14 355.399C1458.38 347.192 1458.49 335.232 1458.49 319.521V246.36C1458.49 235.339 1458.38 226.311 1458.14 219.276C1458.14 212.007 1458.02 206.496 1457.79 202.744C1457.79 198.758 1457.56 196.296 1457.09 195.358L1435.98 190.785L1436.69 179.53H1502.11L1502.81 190.785L1481.71 195.358C1481.47 196.061 1481.12 198.172 1480.65 201.689C1480.42 204.972 1480.18 210.248 1479.95 217.517C1479.95 224.552 1479.95 234.166 1479.95 246.36V319.521C1479.95 335.232 1480.07 347.192 1480.3 355.399C1480.54 363.371 1480.77 368.296 1481 370.172L1503.87 374.744L1503.16 386H1436.69ZM1633.31 386L1632.6 374.744L1653.71 370.172C1653.94 368.999 1654.06 366.537 1654.06 362.785C1654.29 358.799 1654.41 353.288 1654.41 346.254C1654.65 339.219 1654.76 330.308 1654.76 319.521V246.36C1654.76 235.339 1654.65 226.311 1654.41 219.276C1654.41 212.007 1654.29 206.496 1654.06 202.744C1654.06 198.758 1653.94 196.296 1653.71 195.358L1632.6 190.785L1633.31 179.53H1698.38L1699.08 190.785L1677.98 195.358C1677.74 196.061 1677.39 198.054 1676.92 201.337C1676.69 204.62 1676.45 209.779 1676.22 216.814C1676.22 223.849 1676.22 233.697 1676.22 246.36V319.521C1676.22 331.715 1676.22 341.446 1676.22 348.716C1676.45 355.75 1676.69 360.909 1676.92 364.192C1677.39 367.241 1677.74 369.234 1677.98 370.172L1699.08 374.744L1698.38 386H1633.31ZM1893.24 343.44V251.988C1893.24 236.98 1893.12 225.607 1892.89 217.869C1892.66 209.896 1892.42 204.268 1892.19 200.986C1891.95 197.703 1891.72 195.827 1891.48 195.358L1867.92 190.785L1868.62 179.53H1931.93L1932.64 190.785L1911.53 195.358C1911.53 195.827 1911.3 197.703 1910.83 200.986C1910.59 204.268 1910.36 209.896 1910.13 217.869C1909.89 225.842 1909.77 237.215 1909.77 251.988V343.791C1909.77 349.654 1909.77 356.337 1909.77 363.84C1909.77 371.344 1909.89 379.2 1910.13 387.407H1897.46L1773.3 207.669H1775.76V314.245C1775.76 328.784 1775.88 340.04 1776.11 348.012C1776.58 355.75 1776.93 361.261 1777.17 364.544C1777.64 367.592 1777.87 369.468 1777.87 370.172L1801.44 374.744L1800.73 386H1736.72L1736.01 374.744L1757.12 370.172C1757.35 369.468 1757.59 367.71 1757.82 364.896C1758.06 361.847 1758.29 356.454 1758.53 348.716C1758.76 340.743 1758.88 329.253 1758.88 314.245V247.415C1758.88 234.987 1758.76 225.373 1758.53 218.572C1758.53 211.772 1758.41 206.731 1758.17 203.448C1757.94 199.93 1757.59 197.234 1757.12 195.358L1736.01 190.785L1736.72 179.53H1781.39L1895.7 343.44H1893.24ZM2124.33 178.123L2132.07 232.642L2119.41 234.401L2104.28 195.006C2102.88 194.537 2101 194.303 2098.66 194.303C2096.31 194.068 2094.32 193.951 2092.68 193.951H2079.66C2077.32 193.951 2073.8 193.951 2069.11 193.951C2064.42 193.951 2060.08 194.068 2056.1 194.303C2056.1 196.178 2055.98 200.517 2055.75 207.317C2055.75 214.117 2055.75 221.855 2055.75 230.532C2055.75 239.208 2055.75 247.415 2055.75 255.153V309.673C2055.75 325.384 2055.86 338.75 2056.1 349.771C2056.33 360.792 2056.45 367.592 2056.45 370.172L2085.64 374.041L2084.94 386H2004.74L2004.04 374.041L2033.23 370.172C2033.23 367.592 2033.35 360.792 2033.59 349.771C2033.82 338.75 2033.94 325.384 2033.94 309.673V255.153C2033.94 247.415 2033.94 239.208 2033.94 230.532C2033.94 221.855 2033.94 214.117 2033.94 207.317C2033.94 200.517 2033.82 196.178 2033.59 194.303C2029.83 194.068 2025.61 193.951 2020.92 193.951C2016.23 193.951 2012.6 193.951 2010.02 193.951H1995.95C1994.31 193.951 1992.43 194.068 1990.32 194.303C1988.45 194.303 1986.8 194.537 1985.4 195.006L1969.92 234.752L1957.26 232.642L1965 178.123C1967.81 178.357 1970.27 178.592 1972.38 178.826C1974.73 179.061 1976.84 179.295 1978.71 179.53C1980.82 179.53 1982.82 179.53 1984.69 179.53C1986.8 179.53 1989.15 179.53 1991.73 179.53H2097.6C2100.18 179.53 2102.41 179.53 2104.28 179.53C2106.4 179.53 2108.39 179.53 2110.26 179.53C2112.14 179.295 2114.13 179.061 2116.24 178.826C2118.59 178.592 2121.29 178.357 2124.33 178.123ZM2216.49 389.166C2206.17 389.166 2195.74 387.993 2185.18 385.648C2174.87 383.069 2166.66 380.02 2160.56 376.503L2158.45 334.294L2170.06 332.887L2178.85 361.73C2184.95 365.482 2191.52 368.53 2198.55 370.875C2205.59 372.986 2213.44 374.041 2222.12 374.041C2234.08 374.041 2243.93 370.992 2251.66 364.896C2259.4 358.799 2263.27 350.357 2263.27 339.571C2263.27 331.129 2260.69 324.094 2255.53 318.466C2250.61 312.838 2244.16 307.914 2236.19 303.693C2228.45 299.238 2220.12 295.017 2211.21 291.031C2202.54 286.81 2194.21 282.12 2186.24 276.961C2178.5 271.802 2172.05 265.588 2166.89 258.319C2161.97 251.05 2159.51 242.022 2159.51 231.235C2159.51 220.448 2162.44 210.951 2168.3 202.744C2174.4 194.303 2182.61 187.737 2192.92 183.047C2203.48 178.357 2215.43 176.012 2228.8 176.012C2235.37 176.012 2241.35 176.364 2246.74 177.067C2252.13 177.536 2257.06 178.357 2261.51 179.53C2266.2 180.702 2270.42 182.109 2274.17 183.75L2276.29 223.849L2264.68 225.256L2255.53 198.172C2248.26 193.013 2238.06 190.433 2224.93 190.433C2212.03 190.433 2201.72 193.599 2193.98 199.93C2186.24 206.262 2182.37 214.352 2182.37 224.2C2182.37 232.877 2184.83 240.263 2189.76 246.36C2194.92 252.457 2201.36 257.733 2209.1 262.188C2217.08 266.643 2225.52 270.982 2234.43 275.202C2243.34 279.189 2251.66 283.761 2259.4 288.92C2267.37 293.845 2273.82 299.824 2278.75 306.859C2283.91 313.894 2286.49 322.57 2286.49 332.887C2286.49 343.674 2283.44 353.288 2277.34 361.73C2271.24 370.172 2262.92 376.855 2252.37 381.779C2241.81 386.703 2229.86 389.166 2216.49 389.166ZM2320.6 179.53H2386.03L2386.73 190.785L2365.63 195.709C2365.63 195.944 2365.51 197.351 2365.27 199.93C2365.04 202.275 2364.81 206.965 2364.57 214C2364.57 221.035 2364.57 231.821 2364.57 246.36V308.969C2364.81 324.211 2367.39 336.405 2372.31 345.55C2377.23 354.461 2383.92 360.909 2392.36 364.896C2401.03 368.648 2410.65 370.524 2421.2 370.524C2431.28 370.524 2440.2 368.53 2447.93 364.544C2455.91 360.323 2462.12 353.523 2466.58 344.143C2471.27 334.529 2473.61 321.749 2473.61 305.804V252.691C2473.61 243.077 2473.49 234.401 2473.26 226.662C2473.26 218.924 2473.14 212.358 2472.91 206.965C2472.67 201.572 2472.32 197.82 2471.85 195.709L2447.23 190.785L2447.93 179.53H2511.6L2512.65 190.785L2491.55 195.709C2491.55 196.413 2491.43 198.172 2491.2 200.986C2491.2 203.799 2491.08 209.193 2490.85 217.166C2490.85 224.904 2490.85 236.746 2490.85 252.691V305.452C2490.85 325.618 2487.56 341.915 2481 354.344C2474.67 366.537 2465.99 375.448 2454.97 381.076C2444.18 386.469 2432.22 389.166 2419.09 389.166C2395.41 389.166 2376.65 382.483 2362.81 369.117C2349.21 355.516 2342.41 336.639 2342.41 312.487V246.36C2342.41 232.056 2342.29 221.504 2342.06 214.703C2341.83 207.669 2341.59 202.979 2341.36 200.634C2341.36 198.054 2341.24 196.413 2341 195.709L2319.9 190.785L2320.6 179.53Z" fill="black"/>
<path d="M1462.46 616L1462.07 609.787L1473.13 607.263C1473.26 606.745 1473.33 605.839 1473.33 604.545C1473.46 603.121 1473.52 600.597 1473.52 596.972C1473.65 593.219 1473.72 587.653 1473.72 580.275L1473.91 536.977C1473.91 529.858 1473.85 524.551 1473.72 521.056C1473.59 517.432 1473.46 514.973 1473.33 513.678C1473.33 512.384 1473.26 511.607 1473.13 511.348L1461.48 508.242L1461.87 502.029H1499.35C1510.74 502.029 1519.8 504.876 1526.53 510.572C1533.39 516.138 1536.82 524.163 1536.82 534.647C1536.82 541.896 1534.94 548.109 1531.19 553.287C1527.56 558.335 1522.84 562.218 1517.01 564.936C1511.19 567.654 1505.04 569.014 1498.57 569.014C1495.33 569.014 1492.36 568.884 1489.64 568.625C1487.05 568.237 1484.65 567.849 1482.45 567.46V558.529C1485.95 559.435 1488.86 560.082 1491.19 560.471C1493.52 560.729 1495.72 560.859 1497.79 560.859C1506.08 560.859 1512.55 558.982 1517.21 555.228C1522 551.475 1524.39 545.391 1524.39 536.977C1524.39 527.528 1521.87 520.603 1516.82 516.202C1511.77 511.672 1505.62 509.407 1498.37 509.407H1485.75C1485.75 510.183 1485.69 512.06 1485.56 515.037C1485.56 517.885 1485.5 521.315 1485.37 525.328C1485.37 529.211 1485.37 533.094 1485.37 536.977L1485.56 580.275C1485.56 587.653 1485.56 593.154 1485.56 596.778C1485.69 600.273 1485.82 602.668 1485.95 603.962C1486.08 605.257 1486.14 606.227 1486.14 606.875L1502.45 609.399L1502.06 616H1462.46ZM1557.01 616L1556.62 609.787L1568.27 607.263C1568.4 606.616 1568.47 605.257 1568.47 603.186C1568.6 600.985 1568.66 597.943 1568.66 594.06C1568.79 590.177 1568.85 585.258 1568.85 579.304V538.919C1568.85 532.835 1568.79 527.852 1568.66 523.969C1568.66 519.956 1568.6 516.914 1568.47 514.843C1568.47 512.643 1568.4 511.284 1568.27 510.766L1556.62 508.242L1557.01 502.029H1592.93L1593.32 508.242L1581.67 510.766C1581.54 511.154 1581.35 512.254 1581.09 514.067C1580.96 515.879 1580.83 518.726 1580.7 522.61C1580.7 526.493 1580.7 531.929 1580.7 538.919V579.304C1580.7 586.035 1580.7 591.407 1580.7 595.419C1580.83 599.302 1580.96 602.15 1581.09 603.962C1581.35 605.645 1581.54 606.745 1581.67 607.263L1593.32 609.787L1592.93 616H1557.01ZM1691.37 616.777C1690.33 616.647 1689.04 616.518 1687.49 616.388C1686.06 616.259 1684.51 616.129 1682.83 616C1681.27 616 1679.72 616 1678.17 616H1614.29L1613.9 609.787L1625.55 607.263C1625.68 606.616 1625.81 605.321 1625.94 603.38C1626.07 601.309 1626.13 598.332 1626.13 594.448C1626.26 590.436 1626.33 585.388 1626.33 579.304V538.919C1626.33 532.706 1626.33 527.658 1626.33 523.775C1626.33 519.891 1626.26 516.914 1626.13 514.843C1626 512.772 1625.81 511.478 1625.55 510.96L1613.9 508.242L1614.29 502.029H1655.06L1655.45 508.63L1639.33 510.96C1639.08 511.348 1638.88 512.513 1638.75 514.455C1638.62 516.267 1638.49 519.179 1638.36 523.192C1638.36 527.075 1638.36 532.318 1638.36 538.919V579.304C1638.36 585.647 1638.36 591.471 1638.36 596.778C1638.49 601.956 1638.62 605.127 1638.75 606.292C1640.3 606.422 1641.92 606.551 1643.61 606.68C1645.29 606.68 1647.1 606.68 1649.04 606.68H1667.68C1670.53 606.68 1672.99 606.68 1675.06 606.68C1677.13 606.551 1679.33 606.357 1681.66 606.098L1691.37 588.041L1698.55 589.594L1691.37 616.777ZM1700.3 616L1699.91 609.787L1709.43 607.263L1749.42 504.165L1758.35 498.534L1799.52 607.263L1809.03 609.787L1808.64 616H1775.44L1775.05 609.787L1786.7 607.263L1774.86 576.586L1772.72 570.955L1750.59 514.843L1754.66 510.378L1732.34 571.149L1730.2 576.974L1719.33 607.263L1730.98 609.787L1730.59 616H1700.3ZM1725.73 578.722V569.79C1728.19 569.92 1731.82 570.049 1736.61 570.179C1741.4 570.308 1747.16 570.373 1753.89 570.373C1760.49 570.373 1766.18 570.308 1770.97 570.179C1775.76 570.049 1779.32 569.92 1781.65 569.79V578.722C1776.22 578.592 1771.1 578.527 1766.31 578.527C1761.52 578.398 1757.38 578.333 1753.89 578.333C1750.52 578.333 1746.51 578.398 1741.85 578.527C1737.19 578.527 1731.82 578.592 1725.73 578.722ZM1899.7 501.252L1903.97 531.347L1896.98 532.318L1888.63 510.572C1887.86 510.313 1886.82 510.183 1885.53 510.183C1884.23 510.054 1883.13 509.989 1882.23 509.989H1875.04C1873.75 509.989 1871.81 509.989 1869.22 509.989C1866.63 509.989 1864.23 510.054 1862.03 510.183C1862.03 511.219 1861.97 513.614 1861.84 517.367C1861.84 521.121 1861.84 525.393 1861.84 530.182C1861.84 534.971 1861.84 539.501 1861.84 543.773V573.868C1861.84 582.54 1861.9 589.918 1862.03 596.002C1862.16 602.085 1862.23 605.839 1862.23 607.263L1878.34 609.399L1877.96 616H1833.69L1833.3 609.399L1849.41 607.263C1849.41 605.839 1849.48 602.085 1849.61 596.002C1849.74 589.918 1849.8 582.54 1849.8 573.868V543.773C1849.8 539.501 1849.8 534.971 1849.8 530.182C1849.8 525.393 1849.8 521.121 1849.8 517.367C1849.8 513.614 1849.74 511.219 1849.61 510.183C1847.54 510.054 1845.21 509.989 1842.62 509.989C1840.03 509.989 1838.02 509.989 1836.6 509.989H1828.83C1827.93 509.989 1826.89 510.054 1825.73 510.183C1824.69 510.183 1823.78 510.313 1823.01 510.572L1814.47 532.512L1807.48 531.347L1811.75 501.252C1813.3 501.382 1814.66 501.511 1815.82 501.64C1817.12 501.77 1818.28 501.899 1819.32 502.029C1820.48 502.029 1821.58 502.029 1822.62 502.029C1823.78 502.029 1825.08 502.029 1826.5 502.029H1884.94C1886.37 502.029 1887.6 502.029 1888.63 502.029C1889.8 502.029 1890.9 502.029 1891.93 502.029C1892.97 501.899 1894.07 501.77 1895.24 501.64C1896.53 501.511 1898.02 501.382 1899.7 501.252ZM1998.92 616.971C1994.9 616.453 1991.99 616.129 1990.18 616C1988.5 616 1986.75 616 1984.94 616H1918.34L1917.95 609.787L1929.6 607.263C1929.73 606.616 1929.8 605.257 1929.8 603.186C1929.92 600.985 1929.99 597.943 1929.99 594.06C1930.12 590.047 1930.18 585.129 1930.18 579.304V538.919C1930.18 532.965 1930.12 527.981 1929.99 523.969C1929.99 519.956 1929.92 516.914 1929.8 514.843C1929.8 512.643 1929.73 511.284 1929.6 510.766L1917.95 508.242L1918.34 502.029H1982.02C1983.45 502.029 1984.74 502.029 1985.91 502.029C1987.07 502.029 1988.43 501.964 1989.98 501.835C1991.67 501.705 1993.87 501.511 1996.59 501.252L1999.89 525.522L1992.31 526.687L1986.1 510.766C1985.45 510.637 1984.48 510.572 1983.19 510.572C1982.02 510.442 1980.73 510.378 1979.31 510.378H1953.68C1951.22 510.378 1949.15 510.442 1947.46 510.572C1945.78 510.572 1944.03 510.701 1942.22 510.96C1942.22 511.348 1942.16 512.772 1942.03 515.232C1942.03 517.691 1941.96 520.474 1941.83 523.58C1941.83 526.687 1941.83 529.47 1941.83 531.929V589.983C1941.83 591.795 1941.83 593.931 1941.83 596.39C1941.96 598.72 1942.03 600.856 1942.03 602.797C1942.16 604.739 1942.22 606.033 1942.22 606.68C1943.77 606.81 1945.39 606.939 1947.08 607.069C1948.76 607.198 1950.51 607.263 1952.32 607.263H1975.23C1977.82 607.263 1980.02 607.263 1981.83 607.263C1983.77 607.133 1985.32 607.004 1986.49 606.875C1987.65 606.745 1988.5 606.616 1989.01 606.486L1998.92 588.429L2006.29 589.983L1998.92 616.971ZM1978.92 575.809L1976.39 562.412C1975.75 562.153 1974.71 561.959 1973.29 561.83C1971.99 561.7 1970.37 561.636 1968.43 561.636H1951.54C1950.12 561.636 1948.37 561.7 1946.3 561.83C1944.36 561.83 1942.09 561.894 1939.5 562.024V552.898C1942.09 553.028 1944.36 553.093 1946.3 553.093C1948.37 553.093 1950.12 553.093 1951.54 553.093H1968.43C1970.37 553.093 1971.99 553.093 1973.29 553.093C1974.71 552.963 1975.75 552.769 1976.39 552.51L1978.92 538.725H1985.91V575.809H1978.92ZM2056.39 617.747C2050.69 617.747 2044.93 617.1 2039.11 615.806C2033.41 614.382 2028.88 612.699 2025.52 610.758L2024.35 587.459L2030.76 586.682L2035.61 602.603C2038.98 604.674 2042.6 606.357 2046.48 607.651C2050.37 608.816 2054.7 609.399 2059.49 609.399C2066.1 609.399 2071.53 607.716 2075.8 604.35C2080.07 600.985 2082.21 596.325 2082.21 590.371C2082.21 585.711 2080.79 581.828 2077.94 578.722C2075.22 575.615 2071.66 572.897 2067.26 570.567C2062.99 568.108 2058.39 565.778 2053.47 563.577C2048.69 561.247 2044.09 558.658 2039.69 555.811C2035.42 552.963 2031.86 549.533 2029.01 545.52C2026.29 541.508 2024.93 536.524 2024.93 530.57C2024.93 524.616 2026.55 519.374 2029.79 514.843C2033.15 510.183 2037.68 506.559 2043.38 503.97C2049.2 501.382 2055.8 500.087 2063.18 500.087C2066.81 500.087 2070.11 500.281 2073.08 500.67C2076.06 500.929 2078.78 501.382 2081.24 502.029C2083.83 502.676 2086.16 503.453 2088.23 504.359L2089.39 526.493L2082.99 527.269L2077.94 512.319C2073.93 509.472 2068.3 508.048 2061.05 508.048C2053.93 508.048 2048.23 509.795 2043.96 513.29C2039.69 516.785 2037.55 521.251 2037.55 526.687C2037.55 531.476 2038.91 535.554 2041.63 538.919C2044.48 542.284 2048.04 545.197 2052.31 547.656C2056.71 550.115 2061.37 552.51 2066.29 554.84C2071.21 557.04 2075.8 559.565 2080.07 562.412C2084.48 565.13 2088.03 568.431 2090.75 572.314C2093.6 576.197 2095.02 580.987 2095.02 586.682C2095.02 592.636 2093.34 597.943 2089.98 602.603C2086.61 607.263 2082.02 610.952 2076.19 613.67C2070.37 616.388 2063.77 617.747 2056.39 617.747Z" fill="black"/>
<defs>
<linearGradient id="paint0_linear_1_1668" x1="414.645" y1="29.0195" x2="414.645" y2="540.115" gradientUnits="userSpaceOnUse">
<stop stop-color="#E9C17D"/>
<stop offset="1" stop-color="#C79858"/>
</linearGradient>
<linearGradient id="paint1_linear_1_1668" x1="516.025" y1="348.941" x2="516.025" y2="672.579" gradientUnits="userSpaceOnUse">
<stop stop-color="#E9C17D"/>
<stop offset="1" stop-color="#C79858"/>
</linearGradient>
<linearGradient id="paint2_linear_1_1668" x1="432.119" y1="0" x2="432.119" y2="875.935" gradientUnits="userSpaceOnUse">
<stop stop-color="#E9C17D"/>
<stop offset="1" stop-color="#C79858"/>
</linearGradient>
<linearGradient id="paint3_linear_1_1668" x1="477.501" y1="589.416" x2="477.501" y2="844.485" gradientUnits="userSpaceOnUse">
<stop stop-color="#E9C17D"/>
<stop offset="1" stop-color="#C79858"/>
</linearGradient>
<linearGradient id="paint4_linear_1_1668" x1="704.941" y1="280.492" x2="704.941" y2="632.013" gradientUnits="userSpaceOnUse">
<stop stop-color="#E9C17D"/>
<stop offset="1" stop-color="#C79858"/>
</linearGradient>
<linearGradient id="paint5_linear_1_1668" x1="375.458" y1="373.051" x2="375.458" y2="693.337" gradientUnits="userSpaceOnUse">
<stop stop-color="#E9C17D"/>
<stop offset="1" stop-color="#C79858"/>
</linearGradient>
<linearGradient id="paint6_linear_1_1668" x1="446.014" y1="175.352" x2="446.014" y2="202.14" gradientUnits="userSpaceOnUse">
<stop stop-color="#E9C17D"/>
<stop offset="1" stop-color="#C79858"/>
</linearGradient>
</defs>
</svg>
