<svg width="3588" height="669" viewBox="0 0 3588 669" fill="none" xmlns="http://www.w3.org/2000/svg">
<ellipse cx="105.784" cy="563.143" rx="22.4088" ry="20.1838" fill="black"/>
<path d="M316.301 0.0625H342.767C342.868 0.0812861 342.968 0.101181 343.068 0.118858C349.443 1.23952 356.335 1.07312 362.806 1.72796C375.194 3.02371 387.499 5.04635 399.661 7.78591C478.138 25.5917 547.428 72.5554 594.199 139.641C622.839 180.591 642.019 227.697 650.279 277.387C651.766 286.134 652.878 294.944 653.608 303.792C654.015 308.836 653.856 315.251 654.879 320.067V347.911L654.822 348.26C653.913 354.461 653.99 360.91 653.392 367.166C652.16 379.712 650.253 392.178 647.686 404.509C631.056 483.384 587.172 553.415 524.146 601.664C483.858 632.6 437.1 653.476 387.583 662.638C378.967 664.217 370.295 665.469 361.587 666.375C357.225 666.786 347.577 666.832 344.024 667.875H315.621C311.189 666.819 304.608 666.988 299.919 666.584C291.357 665.756 282.826 664.608 274.346 663.128C225.986 654.63 180.139 634.958 140.269 605.607C74.5444 557.371 28.6449 485.772 11.4953 404.732C8.86463 392.112 6.91804 379.352 5.66449 366.51C5.07715 360.385 5.30817 353.916 4.28506 347.88C4.26796 347.778 4.24867 347.678 4.23047 347.578V320.398C5.23006 316.175 5.09748 308.53 5.47835 303.801C6.26484 295.015 7.37186 286.263 8.79706 277.562C17.009 228.103 36.0222 181.193 64.4113 140.349C111.192 72.8202 180.765 25.557 259.608 7.74593C272.113 4.94874 284.766 2.89251 297.502 1.58745C303.577 0.970765 310.03 1.20129 316.006 0.11951C316.105 0.101677 316.203 0.0815032 316.301 0.0625Z" fill="black"/>
<path d="M216.929 43.4215C223.483 41.375 229.909 38.9425 236.454 36.8681C248.516 33.0377 260.783 29.8793 273.196 27.4088C340.336 14.8552 409.746 24.9771 470.505 56.1828C495.227 69.0293 518.095 85.1666 538.485 104.153C535.995 112.054 535.803 120.719 532.88 128.37C530.372 134.928 525.603 140.214 523.107 146.902C524.687 145.05 525.806 142.83 527.181 140.822C528.937 138.256 530.877 135.706 532.296 132.936C536.561 124.61 537.834 114.804 540.266 105.821C548.284 113.443 555.92 121.456 563.146 129.831C566.218 133.342 569.848 137.134 572.134 141.204C570.146 147.619 566.985 153.601 564.024 159.607C557.621 172.71 550.508 185.453 542.716 197.779C539.157 203.343 535.261 208.721 531.558 214.192C528.791 218.277 526.001 223.767 522.293 226.985C516.279 232.203 505.402 235.595 498.4 241.071C503.284 239.467 507.853 237.171 512.602 235.227C516.298 233.714 520.919 232.826 524.125 230.418C527.995 227.512 530.923 223.141 533.835 219.334C547.433 201.563 555.956 186.451 566.484 166.931C569.706 160.958 573.247 155.051 576.258 148.98C576.551 148.388 576.814 147.778 577.07 147.169C589.038 163.092 604.969 189.127 611.741 207.743C608.523 213.016 602.984 217.771 598.792 222.35C581.755 240.961 578.325 247.696 552.996 253.837C542.475 256.317 531.839 258.279 521.126 259.715C506.203 261.613 488.653 259.379 475.483 267.724C467.291 272.915 463.786 282.11 456.451 288.276C449.45 294.162 439.391 297.664 431.484 303.209C408.772 296.634 388.024 285.346 371.035 268.827C351.717 250.043 347.285 228.621 316.832 223.871C302.208 221.59 287.069 222.888 272.475 224.751C265.656 225.622 258.549 226.954 251.67 226.904C276.722 217.792 290.836 216.441 317.677 217.852C316.207 205.924 318.677 190.277 326.408 180.672C328.438 178.149 330.722 176.943 333.932 176.619C337.472 176.262 341.131 176.956 344.684 176.999C355.792 177.135 366.001 172.678 374.447 165.729C375.884 170.771 378.18 175.048 382.99 177.621C387.384 179.971 392.879 180.021 397.549 178.504C404.873 176.126 411.205 170.058 414.571 163.217C417.505 157.255 418.855 149.549 416.655 143.139C415.031 138.406 411.549 134.211 406.959 132.094C403.721 130.6 399.762 130.24 396.367 131.433C395.106 131.877 393.933 132.594 392.807 133.304C395.004 119.477 391.656 106.577 383.461 95.2137C375.12 83.6459 362.21 75.2158 348.06 72.9436C334.134 70.7074 320.612 74.7158 309.33 82.9407C296.575 92.2392 297.343 94.5938 280.529 94.0636C278.886 94.0114 277.626 94.0224 276.632 95.5041C276.095 96.3034 275.793 97.1881 275.672 98.1396C275.191 101.916 278.655 108.101 275.439 110.925C273.769 112.391 270.913 112.848 268.951 113.997L269.883 118.751C268.633 120.578 267.262 122.243 265.834 123.931C265.651 125.62 265.598 127.709 264.848 129.246C262.629 133.792 254.32 138.81 258.449 144.07C264.551 151.844 279.241 155.755 283.844 166.417C282.008 183.997 269.14 200.909 255.881 211.719C233.24 230.179 201.226 237.788 185.395 263.93C181.899 269.702 179.453 276.055 178.771 282.793C177.847 291.921 180.985 300.419 180.657 309.394C180.441 315.268 179.055 321.194 178.177 327.009C176.979 334.939 176.555 342.817 176.715 350.837C169.613 356.249 162.502 365.205 155.233 369.344C147.951 373.49 138.538 375.813 130.536 378.42C125.78 379.968 121.041 381.519 116.359 383.285C112.108 384.888 107.851 386.754 103.482 387.998C78.9799 394.979 52.825 397.697 31.2889 412.475C22.2107 377.346 19.9432 341.859 22.6172 305.754C28.3514 309.811 34.0692 313.901 39.8564 317.883C44.2001 320.87 49.3505 323.471 52.9309 327.385C57.2165 332.07 58.4608 338.911 61.5727 344.322C67.3342 354.342 78.5792 357.655 88.2034 362.711C93.0759 365.27 97.8358 368.265 102.846 370.531L102.419 370.167C96.7144 365.373 89.4072 361.165 82.8942 357.519C78.3828 354.994 73.4428 352.708 69.5844 349.222C63.1479 343.409 61.6397 333.781 56.9173 326.799C55.8223 325.18 54.0965 323.789 52.5537 322.595C49.1203 319.939 45.2664 317.834 41.7301 315.313C35.6186 310.957 29.6711 305.98 23.1373 302.278C27.9516 255.15 42.2176 212.491 65.9518 171.506C73.042 159.261 81.1904 146.385 90.5007 135.711C93.5752 141.972 97.0916 148.107 100.808 154.009C102.835 157.23 105.366 160.394 106.991 163.83C110.496 171.241 110.236 179.761 113.106 187.404C115.458 193.664 119.023 199.752 122.499 205.459C124.236 208.311 126.214 211.147 127.593 214.192C130.613 220.857 132.024 228.726 133.919 235.804C135.975 243.481 138.314 251.077 140.384 258.747C141.122 261.48 143.261 264.146 145.105 266.255C147.749 269.28 167.14 287.109 170.244 288.812C170.382 288.888 170.523 288.958 170.663 289.032C171.494 288.474 171.651 287.766 171.963 286.869C171.527 282.944 150.265 264.359 146.662 256.771C141.224 245.317 139.419 228.085 134.938 215.69C131.566 206.364 124.953 197.904 120.936 188.596C117.71 181.123 118.047 172.729 115.186 165.128C112.233 157.288 106.339 151.106 102.625 143.71C100.06 138.602 99.1697 132.879 96.8129 127.685C130.025 91.0957 168.801 62.1009 215.156 44.2333C215.221 46.0548 215.162 47.9829 215.492 49.7757C215.675 48.402 215.49 47.0571 215.581 45.6857C215.664 44.4319 215.976 44.1855 216.929 43.4215Z" fill="url(#paint0_linear_1_1652)"/>
<path d="M216.929 43.4219C217.345 46.239 217.287 49.2164 217.928 51.9725C219.396 58.2914 222.832 62.6233 221.096 69.5959C221.061 70.621 220.703 71.6247 220.445 72.6123C219.753 75.2581 219.051 77.9289 218.686 80.6431C218.194 84.3007 218.198 88.1473 216.986 91.6571C217.125 87.0833 216.481 82.1064 217.133 77.6259C217.67 73.9426 219.081 70.5975 219.292 66.8295C218.864 60.8607 215.614 55.7728 215.492 49.776C215.675 48.4024 215.49 47.0574 215.58 45.686C215.664 44.4322 215.976 44.1859 216.929 43.4219Z" fill="#252525"/>
<path d="M284.378 266.607C291.622 266.052 298.468 267.322 305.267 269.84C325.67 277.396 349.5 298.038 367.736 310.564C377.615 317.349 387.986 322.732 398.388 328.609C388.006 338.292 382.401 351.645 370.208 359.667C357.283 368.171 345.771 368.647 331.872 373.117C324.987 375.331 291.255 391.764 286.364 396.592C295.475 393.575 304.233 389.837 312.947 385.833C319.051 383.029 325.143 379.933 331.452 377.619C339.157 374.793 347.466 374.31 355.359 372.169C377.911 366.049 389.962 348.369 403.408 330.925C410.354 333.421 417.088 336.211 424.248 338.094C442.486 342.89 460.244 343.039 478.963 342.712C487.721 342.632 496.477 342.403 505.227 342.025C514.098 341.61 526.733 339.329 535.111 341.114C532.615 344.272 529.753 347.054 527.786 350.611C521.29 362.359 528.781 366.7 527.236 375.888C526.737 378.858 525.31 381.29 523.913 383.913C518.947 393.034 512.834 401.473 506.659 409.802C500.878 417.6 495.054 425.364 489.186 433.096C483.959 439.844 478.534 446.403 473.648 453.412C461.176 471.3 452.153 491.88 449.675 513.633C442.387 510.476 435.495 506.459 428.514 502.689C420.206 498.237 411.847 493.881 403.439 489.621C388.251 481.928 372.945 474.297 357.525 467.082C349.431 463.295 341.173 459.856 333.114 455.997C318.595 402.904 272.672 412.009 257.023 378.852C251.767 367.716 251.989 355.068 256.092 343.615C264.183 321.03 291.466 288.363 313.102 278.026C309.065 275.64 304.438 274.009 299.954 272.694C296.403 271.652 282.98 269.303 280.961 267.624C281.778 266.898 283.309 266.807 284.378 266.607Z" fill="url(#paint1_linear_1_1652)"/>
<path d="M433.594 369.552C437.712 369.098 441.495 370.784 445.314 372.107C456.492 375.976 459.957 377.608 466.997 387.326C469.11 390.243 471.133 393.14 473.79 395.598C480.827 402.105 489.156 407.262 497.346 412.146L495.288 415.289C494.947 415.812 494.719 416.288 494.143 416.585C493.123 417.111 490.406 414.662 489.446 414.05C481.803 409.176 473.044 402.91 467.558 395.583C463.968 390.787 461.333 384.826 456.663 380.943C451.116 376.331 440.435 372.096 433.594 369.552Z" fill="#252525"/>
<path d="M322.103 0.11516C334.629 -0.221483 347.165 0.180092 359.644 1.31797C447.23 9.51844 527.919 52.3442 583.797 120.288C639.92 188.386 666.792 275.939 658.535 363.796C650.313 453.117 606.786 535.464 537.612 592.566C469.592 648.802 386.347 675.878 298.276 667.409C244.314 662.219 192.995 643.063 147.312 614.187C140.14 609.585 133.162 604.691 126.393 599.516C122.93 596.909 119.483 593.783 115.794 591.526C112.935 589.778 109.548 589.582 106.322 588.906C97.5159 587.059 88.7903 582.446 83.0634 575.396C76.0805 566.801 75.2407 557.07 76.3305 546.437C35.3451 497.128 9.60321 436.954 2.24831 373.259C-8.26285 280.733 18.362 192.002 76.2393 119.318C80.283 120.495 82.7817 123.243 85.5636 126.217C78.1306 136.59 70.5249 146.803 63.7163 157.607C36.6672 199.882 19.7106 247.815 14.1605 297.695C4.66246 382.465 29.0385 467.554 81.9809 534.436L86.9225 526.225C61.3912 491.958 42.8273 456.158 31.8367 414.711C47.8144 406.978 66.0459 401.966 83.2972 397.979C90.2176 396.379 97.2218 395.211 104.083 393.351C113.616 390.767 122.963 386.61 132.41 383.562C140.997 380.792 151.169 378.639 158.76 373.771C165.831 369.236 171.353 362.259 177.333 356.424C177.79 389.252 185.139 411.509 201.499 439.514C209.802 453.391 220.011 466.291 232.498 476.635C238.277 481.421 244.895 485.552 250.159 490.915L250.55 491.317C229.927 481.981 212.272 467.148 199.519 448.445C176.468 464.108 151.507 476.97 129.015 493.494C110.874 506.822 89.044 527.17 85.5959 550.335C84.5885 557.102 84.712 563.978 89.0116 569.688C95.6981 578.566 108.765 581.573 119.215 582.5C133.649 583.78 147.346 581.138 161.585 579.468C172.222 578.22 182.982 577.511 193.652 576.551C223.2 573.85 252.929 573.776 282.49 576.331C290.764 577.109 299.057 578.39 307.289 579.535C311.121 587.215 311.156 596.509 315.471 603.775C320.964 613.024 333.618 617.342 341.651 624.048C349.764 630.822 355.4 638.819 364.38 645.778C309.822 653.743 247.771 641.491 198.39 617.749C181.562 609.658 166.267 600.091 150.604 590.018C145.687 590.037 140.721 590.693 135.794 590.88C193.186 633.345 262.19 658.004 333.918 656.984C417.631 655.259 497.206 620.241 555.026 559.679C615.243 498.312 648.632 415.547 647.854 329.572C647.012 243.392 611.624 161.154 549.623 101.29C489.098 42.45 407.512 10.3282 323.12 12.1104C258.906 13.7909 196.676 34.712 144.488 72.164C124.972 86.335 107.35 102.863 90.6904 120.246C86.9548 118.715 83.2421 117.128 79.5521 115.49C81.9103 112.788 84.3054 110.119 86.7364 107.482C137.621 52.0243 205.822 15.479 280.18 3.82537C294.101 1.66167 308.04 0.69866 322.103 0.11516Z" fill="url(#paint2_linear_1_1652)"/>
<path d="M526.614 450.125C532.215 454.98 537.586 460.304 544.434 463.368C549.322 465.555 554.59 466.998 559.317 469.529C564.378 472.238 568.757 476.075 574.171 478.158C582.095 481.205 590.522 482.914 598.464 485.998C586.505 509.626 569.474 531.754 551.062 550.722C547.633 546.951 544.19 543.067 540.039 540.072C536.547 537.551 532.505 535.971 528.819 533.778C525.535 531.822 515.182 522.894 512.827 520.017C512.75 519.923 512.683 519.821 512.61 519.723L511.988 520.024L511.72 519.41L512.184 520.133L512.247 519.996L512.354 520.441C516.528 524.175 519.677 529.189 523.804 533.04C527.783 536.753 532.824 538.71 537.049 542.07C541.194 545.368 544.422 549.924 548.467 553.44C537.326 565.585 524.4 576.302 511.225 586.143C468.494 618.058 423.731 636.951 370.984 644.915C366.69 641.024 362.073 637.471 357.861 633.492C353.1 628.994 348.626 623.803 343.37 619.898C335.967 614.398 324.386 610.925 318.951 603.061C315.937 598.699 315.117 592.973 313.52 587.993C312.603 585.129 311.406 582.417 310.13 579.697C315.22 580.695 320.93 580.667 326.112 580.773C338.416 581.025 350.687 580.591 362.983 580.192C369.213 579.991 377.287 580.511 383.198 578.932C385.123 578.417 386.844 577.748 387.876 575.967C387.893 574.995 387.823 574.526 387.19 573.75C386.273 572.628 384.8 571.757 383.544 571.045C378.994 568.468 374.082 566.468 369.44 564.048C365.113 561.793 361.055 558.655 356.407 557.103C352.7 555.865 348.744 555.706 344.877 555.392C340.513 554.987 335.649 554.906 331.454 553.603C326.153 551.955 322.921 546.836 318.813 543.413C315.487 540.68 311.869 538.323 308.025 536.387C304.108 534.398 294.505 529.813 290.19 531.435C286.106 532.97 286.411 539.996 284.665 543.386C283.799 545.068 282.499 546.266 280.611 546.652C272.006 548.412 239.748 538.393 228.714 536C203.219 530.468 181.044 527.293 155.825 536.515C147.598 539.523 139.75 543.678 131.445 546.414L130.848 546.608C136.483 541.524 143.01 537.691 149.799 534.361C158.27 530.103 167.253 526.951 176.526 524.983C194.024 521.314 211.852 521.135 229.045 515.745C241.141 511.955 251.443 505.964 261.696 498.703C276.482 507.928 290.741 517.029 306.553 524.498C346.784 543.5 399.117 559.599 443.573 562.2C451.042 562.636 460.713 563.46 467.758 560.746C494.051 550.613 515.118 476.19 526.614 450.125Z" fill="url(#paint3_linear_1_1652)"/>
<path d="M614.262 214.205C617.917 218.594 626.718 248.876 628.442 255.526C645.167 319.712 640.979 387.559 616.489 449.201C611.922 460.597 606.934 472.066 600.691 482.654C593.319 478.523 585.334 476.998 577.477 474.151C571.38 471.941 566.366 468.039 560.663 465.12C556.911 463.199 552.602 462.591 548.739 460.948C541.258 457.763 534.444 450.126 528.648 444.586C532.779 434.411 537.422 424.45 541.701 414.336C545.431 405.52 548.78 396.515 552.64 387.761C558.373 374.761 564.361 362.213 569.267 348.831C576.341 329.109 581.204 309.07 581.988 288.114C582.16 283.482 582.463 278.633 581.303 274.097C580.711 271.785 579.812 269.222 577.661 267.971C577.028 267.939 576.665 267.825 576.072 268.115C569.235 271.465 565.994 291.11 563.346 297.996C559.991 306.719 553.865 316.058 544.968 319.9C538.199 322.822 530.017 323.36 522.74 323.081C515.379 322.798 508.032 321.301 500.784 320.066C485.997 317.616 471.334 314.474 456.841 310.653C450.621 309.03 444.176 307.505 438.18 305.165C442.912 301.836 448.456 298.742 453.644 296.158C457.597 294.191 462.196 292.578 465.634 289.791C472.106 284.545 472.934 274.985 481.187 271.335C491.115 266.945 503.688 266.696 514.36 265.731C533.735 263.979 565.315 260.215 580.744 248.291C587.131 243.356 592.493 237.141 597.992 231.268L614.262 214.205Z" fill="url(#paint4_linear_1_1652)"/>
<path d="M580.858 335.729C589.217 339.271 598.859 344.074 603.868 351.974C607.392 357.53 610.252 362.752 614.644 367.754C617.908 371.469 622.875 373.469 625.91 377.265C619.885 375.37 609.783 366.9 605.902 361.963C603.19 358.513 601.015 354.723 597.808 351.679C592.952 347.068 586.363 343.531 580.625 340.1L580.858 335.729Z" fill="#252525"/>
<path d="M274.588 284.891L274.871 285.127C273.407 289.271 250.441 305.636 245.254 310.377C241.363 313.933 237.963 317.869 234.876 322.138C219.3 343.681 215.457 367.72 219.641 393.669C221.403 404.299 224.505 414.662 228.875 424.511C246.991 466.15 283.466 489.023 322.231 509.054C335.377 515.848 349.481 520.78 361.567 529.486L355.49 528.34C342.301 524.487 329.87 518.822 317.558 512.764C284.756 496.622 249.986 474.659 231.898 441.758C216.45 413.657 206.086 378.853 215.454 347.158C222.329 323.895 238.015 306.816 258.141 294.091C263.428 290.748 269.094 287.882 274.588 284.891Z" fill="url(#paint5_linear_1_1652)"/>
<path d="M349.552 133.912C350.434 134.136 351.262 134.301 351.901 135.011C352.757 135.962 352.909 137.191 352.869 138.415C352.743 142.343 349.595 146.965 346.82 149.503C342.17 153.757 337.292 154.667 331.245 154.295C330.603 153.973 329.844 153.612 329.337 153.083C328.665 152.38 328.412 151.769 328.355 150.824C330.573 148.7 335.862 150.306 338.822 149.404C342.811 148.189 346.741 144.024 347.75 139.995C348.178 138.288 348.314 135.908 349.228 134.414C349.331 134.244 349.444 134.079 349.552 133.912Z" fill="url(#paint6_linear_1_1652)"/>
<path d="M846.401 437L845.697 425.744L866.802 420.468C866.802 418.827 866.802 416.482 866.802 413.434C867.036 410.151 867.153 406.399 867.153 402.178C867.153 397.723 867.153 392.798 867.153 387.405C867.388 382.012 867.505 376.384 867.505 370.521V297.36C867.505 286.104 867.388 276.959 867.153 269.924C867.153 262.655 867.036 257.144 866.802 253.393C866.802 249.641 866.684 247.296 866.45 246.358L845.346 241.785L846.049 230.53H916.045C935.742 230.53 951.102 234.868 962.123 243.544C973.378 251.986 979.006 264.179 979.006 280.125C979.006 291.615 975.958 301.932 969.861 311.078C963.764 319.988 955.205 327.023 944.184 332.182C933.397 337.106 920.969 339.568 906.9 339.568H883.685V325.851H906.9C922.845 325.851 935.039 322.216 943.481 314.947C951.922 307.677 956.143 297.36 956.143 283.994C956.143 270.862 952.391 260.896 944.888 254.096C937.618 247.296 926.949 243.896 912.879 243.896H889.313C889.078 244.365 888.844 244.834 888.609 245.303C888.609 245.772 888.609 247.178 888.609 249.523C888.609 251.868 888.609 256.324 888.609 262.889C888.609 269.221 888.609 278.6 888.609 291.029V370.521C888.609 382.715 888.609 392.095 888.609 398.661C888.844 404.992 889.078 409.682 889.313 412.73C889.547 415.778 889.782 418.358 890.016 420.468L911.121 425.744L910.417 437H846.401ZM1005.03 440.166C996.124 440.166 988.151 438.29 981.117 434.538C974.316 430.786 967.282 424.337 960.012 415.192C952.978 406.047 944.536 393.384 934.687 377.204L908.659 333.589L929.059 329.016L965.288 383.887C972.558 394.909 978.889 403.468 984.282 409.564C989.91 415.661 995.303 420.117 1000.46 422.93C1005.62 425.744 1011.25 427.62 1017.35 428.558L1016.99 439.11C1015.35 439.579 1013.36 439.814 1011.01 439.814C1008.9 440.048 1006.91 440.166 1005.03 440.166ZM1181.96 438.759C1174.69 437.821 1169.41 437.234 1166.13 437C1163.08 437 1159.92 437 1156.63 437H1035.99L1035.28 425.744L1056.39 421.172C1056.62 419.999 1056.74 417.537 1056.74 413.785C1056.97 409.799 1057.09 404.288 1057.09 397.254C1057.33 389.984 1057.44 381.074 1057.44 370.521V297.36C1057.44 286.573 1057.33 277.545 1057.09 270.276C1057.09 263.007 1056.97 257.496 1056.74 253.744C1056.74 249.758 1056.62 247.296 1056.39 246.358L1035.28 241.785L1035.99 230.53H1151.36C1153.94 230.53 1156.28 230.53 1158.39 230.53C1160.5 230.53 1162.97 230.412 1165.78 230.178C1168.83 229.943 1172.81 229.592 1177.74 229.123L1183.72 273.09L1170 275.2L1158.74 246.358C1157.57 246.123 1155.81 246.006 1153.47 246.006C1151.36 245.772 1149.01 245.654 1146.43 245.654H1100C1095.55 245.654 1091.8 245.772 1088.75 246.006C1085.7 246.006 1082.53 246.241 1079.25 246.709C1079.25 247.413 1079.13 249.992 1078.9 254.448C1078.9 258.903 1078.78 263.945 1078.55 269.572C1078.55 275.2 1078.55 280.242 1078.55 284.697V389.867C1078.55 393.15 1078.55 397.019 1078.55 401.474C1078.78 405.695 1078.9 409.564 1078.9 413.082C1079.13 416.599 1079.25 418.944 1079.25 420.117C1082.07 420.351 1085 420.586 1088.05 420.82C1091.09 421.055 1094.26 421.172 1097.54 421.172H1139.05C1143.74 421.172 1147.72 421.172 1151.01 421.172C1154.52 420.937 1157.34 420.703 1159.45 420.468C1161.56 420.234 1163.08 419.999 1164.02 419.765L1181.96 387.053L1195.33 389.867L1181.96 438.759ZM1145.73 364.19L1141.16 339.92C1139.99 339.451 1138.11 339.099 1135.53 338.865C1133.18 338.63 1130.25 338.513 1126.74 338.513H1096.14C1093.56 338.513 1090.39 338.63 1086.64 338.865C1083.12 338.865 1079.02 338.982 1074.33 339.217V322.685C1079.02 322.919 1083.12 323.037 1086.64 323.037C1090.39 323.037 1093.56 323.037 1096.14 323.037H1126.74C1130.25 323.037 1133.18 323.037 1135.53 323.037C1138.11 322.802 1139.99 322.451 1141.16 321.982L1145.73 297.008H1158.39V364.19H1145.73ZM1334.97 437L1334.26 425.744L1357.13 422.227C1355.25 419.648 1353.02 416.834 1350.44 413.785C1347.86 410.502 1345.17 407.337 1342.35 404.288L1283.26 338.865H1268.14V327.609L1288.54 321.982L1360.99 246.709L1339.89 241.785L1340.24 230.53H1402.85L1403.2 242.489L1384.56 246.006L1296.27 331.478L1298.03 323.388L1364.86 395.143C1368.15 398.426 1371.19 401.709 1374.01 404.992C1376.82 408.04 1379.4 410.971 1381.75 413.785C1384.33 416.365 1386.67 418.592 1388.78 420.468L1406.02 425.393V437H1334.97ZM1227.69 437L1226.98 425.744L1248.09 421.172C1248.56 419.296 1248.91 414.371 1249.14 406.399C1249.38 398.192 1249.49 386.232 1249.49 370.521V297.36C1249.49 286.339 1249.38 277.311 1249.14 270.276C1249.14 263.007 1249.02 257.496 1248.79 253.744C1248.79 249.758 1248.56 247.296 1248.09 246.358L1226.98 241.785L1227.69 230.53H1293.11L1293.81 241.785L1272.71 246.358C1272.47 247.061 1272.12 249.172 1271.65 252.689C1271.42 255.972 1271.18 261.248 1270.95 268.517C1270.95 275.552 1270.95 285.166 1270.95 297.36V370.521C1270.95 386.232 1271.07 398.192 1271.3 406.399C1271.54 414.371 1271.77 419.296 1272 421.172L1294.87 425.744L1294.16 437H1227.69ZM1424.31 437L1423.6 425.744L1444.71 421.172C1444.94 419.999 1445.06 417.537 1445.06 413.785C1445.29 409.799 1445.41 404.288 1445.41 397.254C1445.65 390.219 1445.76 381.308 1445.76 370.521V297.36C1445.76 286.339 1445.65 277.311 1445.41 270.276C1445.41 263.007 1445.29 257.496 1445.06 253.744C1445.06 249.758 1444.94 247.296 1444.71 246.358L1423.6 241.785L1424.31 230.53H1489.38L1490.08 241.785L1468.98 246.358C1468.74 247.061 1468.39 249.054 1467.92 252.337C1467.69 255.62 1467.45 260.779 1467.22 267.814C1467.22 274.849 1467.22 284.697 1467.22 297.36V370.521C1467.22 382.715 1467.22 392.446 1467.22 399.716C1467.45 406.75 1467.69 411.909 1467.92 415.192C1468.39 418.241 1468.74 420.234 1468.98 421.172L1490.08 425.744L1489.38 437H1424.31ZM1684.24 394.44V302.988C1684.24 287.98 1684.12 276.607 1683.89 268.869C1683.66 260.896 1683.42 255.268 1683.19 251.986C1682.95 248.703 1682.72 246.827 1682.48 246.358L1658.92 241.785L1659.62 230.53H1722.93L1723.64 241.785L1702.53 246.358C1702.53 246.827 1702.3 248.703 1701.83 251.986C1701.59 255.268 1701.36 260.896 1701.13 268.869C1700.89 276.842 1700.77 288.215 1700.77 302.988V394.791C1700.77 400.654 1700.77 407.337 1700.77 414.84C1700.77 422.344 1700.89 430.2 1701.13 438.407H1688.46L1564.3 258.669H1566.76V365.245C1566.76 379.784 1566.88 391.04 1567.11 399.012C1567.58 406.75 1567.93 412.261 1568.17 415.544C1568.64 418.592 1568.87 420.468 1568.87 421.172L1592.44 425.744L1591.73 437H1527.72L1527.01 425.744L1548.12 421.172C1548.35 420.468 1548.59 418.71 1548.82 415.896C1549.06 412.847 1549.29 407.454 1549.53 399.716C1549.76 391.743 1549.88 380.253 1549.88 365.245V298.415C1549.88 285.987 1549.76 276.373 1549.53 269.572C1549.53 262.772 1549.41 257.731 1549.17 254.448C1548.94 250.93 1548.59 248.234 1548.12 246.358L1527.01 241.785L1527.72 230.53H1572.39L1686.7 394.44H1684.24ZM1915.33 229.123L1923.07 283.642L1910.41 285.401L1895.28 246.006C1893.88 245.537 1892 245.303 1889.66 245.303C1887.31 245.068 1885.32 244.951 1883.68 244.951H1870.66C1868.32 244.951 1864.8 244.951 1860.11 244.951C1855.42 244.951 1851.08 245.068 1847.1 245.303C1847.1 247.178 1846.98 251.517 1846.75 258.317C1846.75 265.117 1846.75 272.855 1846.75 281.532C1846.75 290.208 1846.75 298.415 1846.75 306.153V360.673C1846.75 376.384 1846.86 389.75 1847.1 400.771C1847.33 411.792 1847.45 418.592 1847.45 421.172L1876.64 425.041L1875.94 437H1795.74L1795.04 425.041L1824.23 421.172C1824.23 418.592 1824.35 411.792 1824.59 400.771C1824.82 389.75 1824.94 376.384 1824.94 360.673V306.153C1824.94 298.415 1824.94 290.208 1824.94 281.532C1824.94 272.855 1824.94 265.117 1824.94 258.317C1824.94 251.517 1824.82 247.178 1824.59 245.303C1820.83 245.068 1816.61 244.951 1811.92 244.951C1807.23 244.951 1803.6 244.951 1801.02 244.951H1786.95C1785.31 244.951 1783.43 245.068 1781.32 245.303C1779.45 245.303 1777.8 245.537 1776.4 246.006L1760.92 285.752L1748.26 283.642L1756 229.123C1758.81 229.357 1761.27 229.592 1763.38 229.826C1765.73 230.061 1767.84 230.295 1769.71 230.53C1771.82 230.53 1773.82 230.53 1775.69 230.53C1777.8 230.53 1780.15 230.53 1782.73 230.53H1888.6C1891.18 230.53 1893.41 230.53 1895.28 230.53C1897.4 230.53 1899.39 230.53 1901.26 230.53C1903.14 230.295 1905.13 230.061 1907.24 229.826C1909.59 229.592 1912.29 229.357 1915.33 229.123ZM2007.49 440.166C1997.17 440.166 1986.74 438.993 1976.18 436.648C1965.87 434.069 1957.66 431.02 1951.56 427.503L1949.45 385.294L1961.06 383.887L1969.85 412.73C1975.95 416.482 1982.52 419.53 1989.55 421.875C1996.59 423.986 2004.44 425.041 2013.12 425.041C2025.08 425.041 2034.93 421.992 2042.66 415.896C2050.4 409.799 2054.27 401.357 2054.27 390.571C2054.27 382.129 2051.69 375.094 2046.53 369.466C2041.61 363.838 2035.16 358.914 2027.19 354.693C2019.45 350.238 2011.12 346.017 2002.21 342.031C1993.54 337.81 1985.21 333.12 1977.24 327.961C1969.5 322.802 1963.05 316.588 1957.89 309.319C1952.97 302.05 1950.51 293.022 1950.51 282.235C1950.51 271.448 1953.44 261.951 1959.3 253.744C1965.4 245.303 1973.61 238.737 1983.92 234.047C1994.48 229.357 2006.43 227.012 2019.8 227.012C2026.37 227.012 2032.35 227.364 2037.74 228.067C2043.13 228.536 2048.06 229.357 2052.51 230.53C2057.2 231.702 2061.42 233.109 2065.17 234.75L2067.29 274.849L2055.68 276.256L2046.53 249.172C2039.26 244.013 2029.06 241.433 2015.93 241.433C2003.03 241.433 1992.72 244.599 1984.98 250.93C1977.24 257.262 1973.37 265.352 1973.37 275.2C1973.37 283.877 1975.83 291.263 1980.76 297.36C1985.92 303.457 1992.36 308.733 2000.1 313.188C2008.08 317.643 2016.52 321.982 2025.43 326.202C2034.34 330.189 2042.66 334.761 2050.4 339.92C2058.37 344.845 2064.82 350.824 2069.75 357.859C2074.91 364.894 2077.49 373.57 2077.49 383.887C2077.49 394.674 2074.44 404.288 2068.34 412.73C2062.24 421.172 2053.92 427.855 2043.37 432.779C2032.81 437.703 2020.86 440.166 2007.49 440.166ZM2111.6 230.53H2177.03L2177.73 241.785L2156.63 246.709C2156.63 246.944 2156.51 248.351 2156.27 250.93C2156.04 253.275 2155.81 257.965 2155.57 265C2155.57 272.035 2155.57 282.821 2155.57 297.36V359.969C2155.81 375.211 2158.39 387.405 2163.31 396.55C2168.23 405.461 2174.92 411.909 2183.36 415.896C2192.03 419.648 2201.65 421.524 2212.2 421.524C2222.28 421.524 2231.2 419.53 2238.93 415.544C2246.91 411.323 2253.12 404.523 2257.58 395.143C2262.27 385.529 2264.61 372.749 2264.61 356.804V303.691C2264.61 294.077 2264.49 285.401 2264.26 277.662C2264.26 269.924 2264.14 263.358 2263.91 257.965C2263.67 252.572 2263.32 248.82 2262.85 246.709L2238.23 241.785L2238.93 230.53H2302.6L2303.65 241.785L2282.55 246.709C2282.55 247.413 2282.43 249.172 2282.2 251.986C2282.2 254.799 2282.08 260.193 2281.85 268.166C2281.85 275.904 2281.85 287.746 2281.85 303.691V356.452C2281.85 376.618 2278.56 392.915 2272 405.344C2265.67 417.537 2256.99 426.448 2245.97 432.076C2235.18 437.469 2223.22 440.166 2210.09 440.166C2186.41 440.166 2167.65 433.483 2153.81 420.117C2140.21 406.516 2133.41 387.639 2133.41 363.487V297.36C2133.41 283.056 2133.29 272.504 2133.06 265.703C2132.83 258.669 2132.59 253.979 2132.36 251.634C2132.36 249.054 2132.24 247.413 2132 246.709L2110.9 241.785L2111.6 230.53Z" fill="#252525"/>
<path d="M2425.75 437L2425.05 425.744L2445.1 421.172C2445.33 420.234 2445.45 418.592 2445.45 416.247C2445.68 413.668 2445.8 409.095 2445.8 402.53C2446.04 395.729 2446.15 385.646 2446.15 372.28L2446.51 293.842C2446.51 280.945 2446.39 271.331 2446.15 265C2445.92 258.434 2445.68 253.979 2445.45 251.634C2445.45 249.289 2445.33 247.882 2445.1 247.413L2423.99 241.785L2424.7 230.53H2492.58C2513.22 230.53 2529.63 235.688 2541.83 246.006C2554.25 256.089 2560.47 270.628 2560.47 289.622C2560.47 302.753 2557.07 314.009 2550.27 323.388C2543.7 332.534 2535.14 339.568 2524.59 344.493C2514.04 349.417 2502.9 351.879 2491.18 351.879C2485.31 351.879 2479.92 351.645 2475 351.176C2470.31 350.472 2465.97 349.769 2461.98 349.065V332.885C2468.31 334.527 2473.59 335.699 2477.81 336.403C2482.03 336.872 2486.02 337.106 2489.77 337.106C2504.78 337.106 2516.5 333.706 2524.94 326.906C2533.62 320.106 2537.96 309.084 2537.96 293.842C2537.96 276.725 2533.38 264.179 2524.24 256.206C2515.09 247.999 2503.96 243.896 2490.82 243.896H2467.96C2467.96 245.303 2467.84 248.703 2467.61 254.096C2467.61 259.255 2467.49 265.469 2467.26 272.738C2467.26 279.773 2467.26 286.808 2467.26 293.842L2467.61 372.28C2467.61 385.646 2467.61 395.612 2467.61 402.178C2467.84 408.509 2468.08 412.847 2468.31 415.192C2468.55 417.537 2468.66 419.296 2468.66 420.468L2498.21 425.041L2497.51 437H2425.75ZM2597.05 437L2596.35 425.744L2617.45 421.172C2617.68 419.999 2617.8 417.537 2617.8 413.785C2618.04 409.799 2618.15 404.288 2618.15 397.254C2618.39 390.219 2618.51 381.308 2618.51 370.521V297.36C2618.51 286.339 2618.39 277.311 2618.15 270.276C2618.15 263.007 2618.04 257.496 2617.8 253.744C2617.8 249.758 2617.68 247.296 2617.45 246.358L2596.35 241.785L2597.05 230.53H2662.12L2662.82 241.785L2641.72 246.358C2641.49 247.061 2641.13 249.054 2640.66 252.337C2640.43 255.62 2640.2 260.779 2639.96 267.814C2639.96 274.849 2639.96 284.697 2639.96 297.36V370.521C2639.96 382.715 2639.96 392.446 2639.96 399.716C2640.2 406.75 2640.43 411.909 2640.66 415.192C2641.13 418.241 2641.49 420.234 2641.72 421.172L2662.82 425.744L2662.12 437H2597.05ZM2840.45 438.407C2838.58 438.172 2836.23 437.938 2833.42 437.703C2830.84 437.469 2828.02 437.234 2824.98 437C2822.16 437 2819.35 437 2816.53 437H2700.81L2700.11 425.744L2721.21 421.172C2721.45 419.999 2721.68 417.654 2721.92 414.137C2722.15 410.385 2722.27 404.992 2722.27 397.957C2722.5 390.688 2722.62 381.543 2722.62 370.521V297.36C2722.62 286.104 2722.62 276.959 2722.62 269.924C2722.62 262.889 2722.5 257.496 2722.27 253.744C2722.03 249.992 2721.68 247.647 2721.21 246.709L2700.11 241.785L2700.81 230.53H2774.68L2775.38 242.489L2746.19 246.709C2745.72 247.413 2745.37 249.523 2745.13 253.041C2744.9 256.324 2744.66 261.6 2744.43 268.869C2744.43 275.904 2744.43 285.401 2744.43 297.36V370.521C2744.43 382.012 2744.43 392.564 2744.43 402.178C2744.66 411.558 2744.9 417.303 2745.13 419.413C2747.94 419.648 2750.88 419.882 2753.92 420.117C2756.97 420.117 2760.26 420.117 2763.77 420.117H2797.54C2802.7 420.117 2807.15 420.117 2810.91 420.117C2814.66 419.882 2818.64 419.53 2822.87 419.061L2840.45 386.35L2853.47 389.164L2840.45 438.407ZM2856.63 437L2855.93 425.744L2873.16 421.172L2945.62 234.399L2961.8 224.198L3036.37 421.172L3053.61 425.744L3052.9 437H2992.75L2992.05 425.744L3013.16 421.172L2991.7 365.597L2987.83 355.397L2947.73 253.744L2955.12 245.654L2914.67 355.748L2910.8 366.301L2891.1 421.172L2912.21 425.744L2911.5 437H2856.63ZM2902.71 369.466V353.286C2907.17 353.521 2913.73 353.755 2922.41 353.99C2931.08 354.224 2941.52 354.341 2953.71 354.341C2965.67 354.341 2975.99 354.224 2984.66 353.99C2993.34 353.755 2999.79 353.521 3004.01 353.286V369.466C2994.16 369.232 2984.9 369.114 2976.22 369.114C2967.55 368.88 2960.04 368.763 2953.71 368.763C2947.62 368.763 2940.35 368.88 2931.9 369.114C2923.46 369.114 2913.73 369.232 2902.71 369.466ZM3217.87 229.123L3225.61 283.642L3212.94 285.401L3197.82 246.006C3196.41 245.537 3194.54 245.303 3192.19 245.303C3189.85 245.068 3187.85 244.951 3186.21 244.951H3173.2C3170.85 244.951 3167.33 244.951 3162.64 244.951C3157.95 244.951 3153.62 245.068 3149.63 245.303C3149.63 247.178 3149.51 251.517 3149.28 258.317C3149.28 265.117 3149.28 272.855 3149.28 281.532C3149.28 290.208 3149.28 298.415 3149.28 306.153V360.673C3149.28 376.384 3149.4 389.75 3149.63 400.771C3149.86 411.792 3149.98 418.592 3149.98 421.172L3179.18 425.041L3178.47 437H3098.28L3097.57 425.041L3126.77 421.172C3126.77 418.592 3126.88 411.792 3127.12 400.771C3127.35 389.75 3127.47 376.384 3127.47 360.673V306.153C3127.47 298.415 3127.47 290.208 3127.47 281.532C3127.47 272.855 3127.47 265.117 3127.47 258.317C3127.47 251.517 3127.35 247.178 3127.12 245.303C3123.37 245.068 3119.15 244.951 3114.46 244.951C3109.77 244.951 3106.13 244.951 3103.55 244.951H3089.48C3087.84 244.951 3085.97 245.068 3083.86 245.303C3081.98 245.303 3080.34 245.537 3078.93 246.006L3063.45 285.752L3050.79 283.642L3058.53 229.123C3061.34 229.357 3063.81 229.592 3065.92 229.826C3068.26 230.061 3070.37 230.295 3072.25 230.53C3074.36 230.53 3076.35 230.53 3078.23 230.53C3080.34 230.53 3082.68 230.53 3085.26 230.53H3191.14C3193.71 230.53 3195.94 230.53 3197.82 230.53C3199.93 230.53 3201.92 230.53 3203.8 230.53C3205.67 230.295 3207.67 230.061 3209.78 229.826C3212.12 229.592 3214.82 229.357 3217.87 229.123ZM3397.61 438.759C3390.34 437.821 3385.06 437.234 3381.78 437C3378.73 437 3375.56 437 3372.28 437H3251.63L3250.93 425.744L3272.04 421.172C3272.27 419.999 3272.39 417.537 3272.39 413.785C3272.62 409.799 3272.74 404.288 3272.74 397.254C3272.97 389.984 3273.09 381.074 3273.09 370.521V297.36C3273.09 286.573 3272.97 277.545 3272.74 270.276C3272.74 263.007 3272.62 257.496 3272.39 253.744C3272.39 249.758 3272.27 247.296 3272.04 246.358L3250.93 241.785L3251.63 230.53H3367C3369.58 230.53 3371.93 230.53 3374.04 230.53C3376.15 230.53 3378.61 230.412 3381.43 230.178C3384.47 229.943 3388.46 229.592 3393.39 229.123L3399.36 273.09L3385.65 275.2L3374.39 246.358C3373.22 246.123 3371.46 246.006 3369.12 246.006C3367 245.772 3364.66 245.654 3362.08 245.654H3315.65C3311.2 245.654 3307.44 245.772 3304.4 246.006C3301.35 246.006 3298.18 246.241 3294.9 246.709C3294.9 247.413 3294.78 249.992 3294.55 254.448C3294.55 258.903 3294.43 263.945 3294.19 269.572C3294.19 275.2 3294.19 280.242 3294.19 284.697V389.867C3294.19 393.15 3294.19 397.019 3294.19 401.474C3294.43 405.695 3294.55 409.564 3294.55 413.082C3294.78 416.599 3294.9 418.944 3294.9 420.117C3297.71 420.351 3300.64 420.586 3303.69 420.82C3306.74 421.055 3309.91 421.172 3313.19 421.172H3354.69C3359.38 421.172 3363.37 421.172 3366.65 421.172C3370.17 420.937 3372.98 420.703 3375.09 420.468C3377.21 420.234 3378.73 419.999 3379.67 419.765L3397.61 387.053L3410.97 389.867L3397.61 438.759ZM3361.38 364.19L3356.8 339.92C3355.63 339.451 3353.76 339.099 3351.18 338.865C3348.83 338.63 3345.9 338.513 3342.38 338.513H3311.78C3309.2 338.513 3306.04 338.63 3302.28 338.865C3298.77 338.865 3294.66 338.982 3289.97 339.217V322.685C3294.66 322.919 3298.77 323.037 3302.28 323.037C3306.04 323.037 3309.2 323.037 3311.78 323.037H3342.38C3345.9 323.037 3348.83 323.037 3351.18 323.037C3353.76 322.802 3355.63 322.451 3356.8 321.982L3361.38 297.008H3374.04V364.19H3361.38ZM3501.72 440.166C3491.4 440.166 3480.97 438.993 3470.42 436.648C3460.1 434.069 3451.89 431.02 3445.79 427.503L3443.68 385.294L3455.29 383.887L3464.08 412.73C3470.18 416.482 3476.75 419.53 3483.78 421.875C3490.82 423.986 3498.67 425.041 3507.35 425.041C3519.31 425.041 3529.16 421.992 3536.89 415.896C3544.63 409.799 3548.5 401.357 3548.5 390.571C3548.5 382.129 3545.92 375.094 3540.76 369.466C3535.84 363.838 3529.39 358.914 3521.42 354.693C3513.68 350.238 3505.36 346.017 3496.44 342.031C3487.77 337.81 3479.44 333.12 3471.47 327.961C3463.73 322.802 3457.28 316.588 3452.13 309.319C3447.2 302.05 3444.74 293.022 3444.74 282.235C3444.74 271.448 3447.67 261.951 3453.53 253.744C3459.63 245.303 3467.84 238.737 3478.15 234.047C3488.71 229.357 3500.67 227.012 3514.03 227.012C3520.6 227.012 3526.58 227.364 3531.97 228.067C3537.36 228.536 3542.29 229.357 3546.74 230.53C3551.43 231.702 3555.65 233.109 3559.41 234.75L3561.52 274.849L3549.91 276.256L3540.76 249.172C3533.49 244.013 3523.29 241.433 3510.16 241.433C3497.27 241.433 3486.95 244.599 3479.21 250.93C3471.47 257.262 3467.6 265.352 3467.6 275.2C3467.6 283.877 3470.06 291.263 3474.99 297.36C3480.15 303.457 3486.6 308.733 3494.33 313.188C3502.31 317.643 3510.75 321.982 3519.66 326.202C3528.57 330.189 3536.89 334.761 3544.63 339.92C3552.61 344.845 3559.05 350.824 3563.98 357.859C3569.14 364.894 3571.72 373.57 3571.72 383.887C3571.72 394.674 3568.67 404.288 3562.57 412.73C3556.47 421.172 3548.15 427.855 3537.6 432.779C3527.05 437.703 3515.09 440.166 3501.72 440.166Z" fill="#252525"/>
<defs>
<linearGradient id="paint0_linear_1_1652" x1="316.654" y1="22.1621" x2="316.654" y2="412.475" gradientUnits="userSpaceOnUse">
<stop stop-color="#E9C17D"/>
<stop offset="1" stop-color="#C79858"/>
</linearGradient>
<linearGradient id="paint1_linear_1_1652" x1="394.077" y1="266.479" x2="394.077" y2="513.633" gradientUnits="userSpaceOnUse">
<stop stop-color="#E9C17D"/>
<stop offset="1" stop-color="#C79858"/>
</linearGradient>
<linearGradient id="paint2_linear_1_1652" x1="330" y1="0" x2="330" y2="668.933" gradientUnits="userSpaceOnUse">
<stop stop-color="#E9C17D"/>
<stop offset="1" stop-color="#C79858"/>
</linearGradient>
<linearGradient id="paint3_linear_1_1652" x1="364.656" y1="450.125" x2="364.656" y2="644.915" gradientUnits="userSpaceOnUse">
<stop stop-color="#E9C17D"/>
<stop offset="1" stop-color="#C79858"/>
</linearGradient>
<linearGradient id="paint4_linear_1_1652" x1="538.346" y1="214.205" x2="538.346" y2="482.654" gradientUnits="userSpaceOnUse">
<stop stop-color="#E9C17D"/>
<stop offset="1" stop-color="#C79858"/>
</linearGradient>
<linearGradient id="paint5_linear_1_1652" x1="286.729" y1="284.891" x2="286.729" y2="529.486" gradientUnits="userSpaceOnUse">
<stop stop-color="#E9C17D"/>
<stop offset="1" stop-color="#C79858"/>
</linearGradient>
<linearGradient id="paint6_linear_1_1652" x1="340.615" y1="133.912" x2="340.615" y2="154.37" gradientUnits="userSpaceOnUse">
<stop stop-color="#E9C17D"/>
<stop offset="1" stop-color="#C79858"/>
</linearGradient>
</defs>
</svg>
